<?xml version="1.0" encoding="utf-8"?>
<!-- Generator: Adobe Illustrator 21.1.0, SVG Export Plug-In . SVG Version: 6.00 Build 0)  -->
<svg version="1.1" id="Layer_1" xmlns="http://www.w3.org/2000/svg" xmlns:xlink="http://www.w3.org/1999/xlink" x="0px" y="0px"
	 viewBox="0 0 1372 598" style="enable-background:new 0 0 1372 598;" xml:space="preserve">
<style type="text/css">
	.st0{fill:#1D1D1B;}
	.st1{font-family:'UntitledSans-Bold';}
	.st2{font-size:42.3642px;}
	.st3{letter-spacing:-1;}
	.st4{font-size:33.6102px;}
	.st5{font-family:'UntitledSans-Regular';}
	.st6{font-size:14px;}
</style>
<text transform="matrix(1 0 0 1 1203.35 337.8057)"><tspan x="0" y="0" class="st0 st1 st2 st3">03.11.17</tspan><tspan x="0" y="38.1" class="st0 st1 st2 st3">18.11.17</tspan></text>
<text transform="matrix(1 0 0 1 277.6398 97.0296)"><tspan x="0" y="0" class="st0 st1 st4 st3">Exposure</tspan><tspan x="0" y="36.3" class="st0 st1 st4 st3">Exhibition</tspan><tspan x="0" y="72.5" class="st0 st5 st4 st3">Massey</tspan><tspan x="0" y="108.8" class="st0 st5 st4 st3">University</tspan></text>
<text transform="matrix(1 0 0 1 809.6526 495.3505)"><tspan x="0" y="0" class="st0 st1 st6">Exposure Exhibition</tspan><tspan x="0" y="15.9" class="st0 st5 st6">Massey University</tspan></text>
<text transform="matrix(1 0 0 1 809.6525 529.295)"><tspan x="0" y="0" class="st0 st1 st6">Exposure Exhibition</tspan><tspan x="0" y="15.9" class="st0 st5 st6">Massey University</tspan></text>
<text transform="matrix(1 0 0 1 809.6524 371.5296)"><tspan x="0" y="0" class="st0 st1 st6">Exposure Exhibition</tspan><tspan x="0" y="15.9" class="st0 st5 st6">Massey University</tspan></text>
<image style="overflow:visible;" width="378" height="122" xlink:href="images/logo.png"  transform="matrix(0.2812 0 0 0.2812 813.0385 421.9699)">
</image>
<rect x="0" y="28.1" class="st0" width="52" height="52"/>
<rect x="190.4" y="28.2" class="st0" width="52" height="52"/>
<rect x="388.7" y="319.5" class="st0" width="52" height="52"/>
<rect x="715.1" y="366.8" class="st0" width="52" height="52"/>
<rect x="684.2" y="480.8" class="st0" width="52" height="52"/>
<rect x="129.3" y="403.2" class="st0" width="50" height="52.5"/>
<rect x="191.3" y="465.3" class="st0" width="52" height="52"/>
<rect x="68.4" y="334.4" class="st0" width="52" height="52"/>
<rect x="1202" y="85.8" class="st0" width="50" height="52.5"/>
<rect x="1263.9" y="147.9" class="st0" width="52" height="52"/>
<rect x="1141.1" y="17.1" class="st0" width="52" height="52"/>
<rect x="751.1" y="108.7" class="st0" width="52" height="52"/>
<rect x="833.6" y="28.3" class="st0" width="52" height="52"/>
<rect x="522.8" y="23.2" class="st0" width="54.6" height="52"/>
<rect x="1050.3" y="330.1" class="st0" width="52" height="52"/>
</svg>
