<?xml version="1.0" encoding="utf-8"?>
<!-- Generator: Adobe Illustrator 21.1.0, SVG Export Plug-In . SVG Version: 6.00 Build 0)  -->
<svg version="1.1" id="e" xmlns="http://www.w3.org/2000/svg" xmlns:xlink="http://www.w3.org/1999/xlink" x="0px" y="0px"
	 viewBox="0 0 1269.3 1031.1" style="enable-background:new 0 0 1269.3 1031.1;" xml:space="preserve">
<style type="text/css">
	.st0{fill:#1D1D1B;stroke:#E6411E;stroke-width:6;}
</style>
<g id="e_x5F_12">
	<rect x="325.7" y="716.9" class="st0" width="207.6" height="43.2"/>
	<polygon class="st0" points="489.6,512.5 489.6,716.9 285.7,716.9 285.7,680.2 453.4,680.2 453.4,512.5 	"/>
</g>
<g id="e_x5F_11">
	<polygon class="st0" points="573.4,716.9 573.4,800.2 365.7,800.2 365.7,760.2 533.4,760.2 533.4,716.9 	"/>
	<polygon class="st0" points="453.4,438.2 453.4,680.2 245.7,680.2 245.7,640.2 413.4,640.2 413.4,438.2 	"/>
</g>
<g id="e_x5F_10">
	<polygon class="st0" points="613.4,716.9 613.4,840.2 405.7,840.2 405.7,800.2 573.4,800.2 573.4,716.9 	"/>
	<polygon class="st0" points="413.4,478.2 413.4,640.2 205.7,640.2 205.7,600.2 373.4,600.2 373.4,478.2 	"/>
</g>
<g id="e_x5F_9">
	<polygon class="st0" points="653.4,716.9 653.4,880.2 445.7,880.2 445.7,840.2 613.4,840.2 613.4,716.9 	"/>
	<polygon class="st0" points="373.4,518.2 373.4,600.2 165.7,600.2 165.7,558.2 333.4,558.2 333.4,518.2 	"/>
</g>
<g id="e_x5F_8">
	<polygon class="st0" points="698.4,716.9 698.4,920.2 485.7,920.2 485.7,880.2 653.4,880.2 653.4,716.9 	"/>
	<g>
		<polygon class="st0" points="333.4,518.2 333.4,558.2 125.7,558.2 125.7,350.6 165.7,350.6 165.7,518.2 		"/>
	</g>
</g>
<g id="e_x5F_7">
	<rect x="525.7" y="920.2" class="st0" width="211.4" height="40"/>
	<rect x="698.8" y="752.5" class="st0" width="38.4" height="167.6"/>
	<polygon class="st0" points="373.4,478.2 373.4,518.2 165.7,518.2 165.7,310.6 205.7,310.6 205.7,478.2 	"/>
</g>
<g id="e_x5F_6">
	<polygon class="st0" points="413.4,438.2 413.4,478.2 205.7,478.2 205.7,270.6 245.7,270.6 245.7,438.2 	"/>
	<rect x="566.1" y="960.5" class="st0" width="334.9" height="39.6"/>
</g>
<g id="e_x5F_5">
	<polygon class="st0" points="698.4,676.4 698.4,716.9 489.6,716.9 489.6,512.5 526.4,512.5 526.4,676.4 	"/>
	<polygon class="st0" points="940.6,920.2 940.6,960.5 737.1,960.5 737.1,752.5 775.9,752.5 775.9,920.2 	"/>
	<polygon class="st0" points="453.4,398.2 453.4,438.2 245.7,438.2 245.7,230.6 285.7,230.6 285.7,398.2 	"/>
</g>
<g id="e_x5F_4">
	<polygon class="st0" points="729.3,634.4 729.3,676.4 526.4,676.4 526.4,464.8 563.8,464.8 563.8,634.4 	"/>
	<polygon class="st0" points="983.6,880.2 983.6,920.2 775.9,920.2 775.9,712.5 815.9,712.5 815.9,880.2 	"/>
	<polygon class="st0" points="493.4,358.2 493.4,398.2 285.7,398.2 285.7,190.6 325.7,190.6 325.7,358.2 	"/>
</g>
<g id="e_x5F_3">
	<polygon class="st0" points="770.7,594.4 770.7,634.4 563.8,634.4 563.8,424.8 605.2,424.8 605.2,594.4 	"/>
	<polygon class="st0" points="1023.6,840.2 1023.6,880.2 815.9,880.2 815.9,672.5 855.9,672.5 855.9,840.2 	"/>
	<polygon class="st0" points="533.4,318.2 533.4,358.2 325.7,358.2 325.7,150.6 365.7,150.6 365.7,318.2 	"/>
</g>
<g id="e_x5F_2">
	<polygon class="st0" points="812.1,555.2 812.1,594.4 605.2,594.4 605.2,384.8 646.6,384.8 646.6,554.4 698.4,554.6 729.3,554.8 
		770.7,555 	"/>
	<polygon class="st0" points="1063.6,800.2 1063.6,840.2 855.9,840.2 855.9,632.5 895.9,632.5 895.9,800.2 	"/>
	<polygon class="st0" points="573.4,278.2 573.4,318.2 365.7,318.2 365.7,110.6 405.7,110.6 405.7,278.2 	"/>
</g>
<g id="e_x5F_1">
	<polygon class="st0" points="853.5,514.4 853.5,555.4 770.7,555 729.3,554.8 698.4,554.6 646.6,554.4 646.6,344.8 688.7,345 
		688.7,514.4 	"/>
	<polygon class="st0" points="1103.6,760.2 1103.6,800.2 895.9,800.2 895.9,592.5 935.9,592.5 935.9,760.2 	"/>
	<polygon class="st0" points="613.4,238.2 613.4,278.2 405.7,278.2 405.7,70.6 445.7,70.6 445.7,238.2 	"/>
</g>
<g id="e_x5F_hover">
	<rect x="688.7" y="304.8" class="st0" width="199.6" height="209.6"/>
	<rect x="935.9" y="552.5" class="st0" width="207.6" height="207.6"/>
	<rect x="445.7" y="30.6" class="st0" width="207.6" height="207.6"/>
</g>
</svg>
