<?xml version="1.0" encoding="utf-8"?>
<!-- Generator: Adobe Illustrator 21.1.0, SVG Export Plug-In . SVG Version: 6.00 Build 0)  -->
<svg version="1.1" id="Layer_2" xmlns="http://www.w3.org/2000/svg" xmlns:xlink="http://www.w3.org/1999/xlink" x="0px" y="0px"
	 viewBox="0 0 1269.3 1031.1" style="enable-background:new 0 0 1269.3 1031.1;" xml:space="preserve">
<style type="text/css">
	.st0{fill:#1D1D1B;stroke:#E6411E;stroke-width:6;}
</style>
<g id="o_x5F_19">
	<polygon class="st0" points="793.6,1000 793.6,1000 585.9,1000 585.9,960 673.5,960 673.5,1000 	"/>
	<polygon class="st0" points="883.6,960 883.6,1000 673.5,1000 673.5,792.4 715.9,792.4 715.9,960 	"/>
</g>
<g id="o_x5F_18">
	<rect x="545.9" y="920" class="st0" width="127.6" height="40"/>
	<polygon class="st0" points="923.6,920 923.6,960 715.9,960 715.9,752.3 755.9,752.3 755.9,920 	"/>
</g>
<g id="o_x5F_17">
	<rect x="505.9" y="880" class="st0" width="167.6" height="40"/>
	<rect x="673.5" y="712.4" class="st0" width="42.4" height="80"/>
	<polygon class="st0" points="963.5,880 963.5,920 755.9,920 755.9,712.4 795.9,712.4 795.9,880 	"/>
</g>
<g id="o_x5F_16">
	<polygon class="st0" points="673.5,672.4 673.5,880 465.9,880 465.9,840 633.5,840 633.5,672.4 	"/>
	<polygon class="st0" points="1003.5,840 1003.5,880 795.9,880 795.9,672.4 835.9,672.4 835.9,840 	"/>
</g>
<g id="o_x5F_15">
	<polygon class="st0" points="633.5,632.4 633.5,840 425.9,840 425.9,800 593.5,800 593.5,632.4 	"/>
	<polygon class="st0" points="1043.5,800 1043.5,840 835.9,840 835.9,632.4 836,632.4 836,638.6 875.9,638.6 875.9,800 	"/>
</g>
<g id="o_x5F_14">
	<polygon class="st0" points="593.5,592.4 593.5,800 385.9,800 385.9,760 553.5,760 553.5,592.4 	"/>
	<polygon class="st0" points="1083.5,760 1083.5,800 875.9,800 875.9,672.4 876,672.4 876,678.6 915.9,678.6 915.9,760 	"/>
</g>
<g id="o_x5F_13">
	<polygon class="st0" points="553.5,552.4 553.5,760 345.9,760 345.9,720 513.5,720 513.5,552.4 	"/>
	<polygon class="st0" points="1123.5,718.6 1123.5,760 915.9,760 915.9,712.4 916,712.4 916,718.6 	"/>
</g>
<g id="o_x5F_12">
	<polygon class="st0" points="513.5,512.4 513.5,720 305.9,720 305.9,680 473.5,680 473.5,512.4 	"/>
	<polygon class="st0" points="1123.6,510.9 1123.6,718.6 916,718.6 916,678.6 1083.6,678.6 1083.6,510.9 	"/>
</g>
<g id="o_x5F_11">
	<polygon class="st0" points="473.5,472.4 473.5,680 265.9,680 265.9,640 433.5,640 433.5,472.4 	"/>
	<polygon class="st0" points="1083.6,470.9 1083.6,678.6 876,678.6 876,638.6 1043.6,638.6 1043.6,470.9 	"/>
</g>
<g id="o_x5F_10">
	<polygon class="st0" points="433.5,438.6 433.5,640 225.9,640 225.9,600 393.5,600 393.5,438.6 	"/>
	<polygon class="st0" points="1043.6,430.9 1043.6,638.6 836,638.6 836,598.6 1003.6,598.6 1003.6,430.9 	"/>
</g>
<g id="o_x5F_9">
	<polygon class="st0" points="393.5,478.6 393.5,600 185.9,600 185.9,560 353.5,560 353.5,478.6 	"/>
	<polygon class="st0" points="1003.6,390.9 1003.6,598.6 796,598.6 796,558.6 963.6,558.6 963.6,390.9 	"/>
</g>
<g id="o_x5F_8">
	<rect x="145.9" y="518.6" class="st0" width="207.6" height="41.4"/>
	<polygon class="st0" points="963.6,350.9 963.6,558.6 756,558.6 756,518.6 923.6,518.6 923.6,350.9 	"/>
</g>
<g id="o_x5F_7">
	<polygon class="st0" points="923.6,310.9 923.6,518.6 716,518.6 716,478.6 883.6,478.6 883.6,310.9 	"/>
	<polygon class="st0" points="353.5,478.6 353.5,518.6 145.9,518.6 145.9,310.9 185.9,310.9 185.9,478.6 	"/>
</g>
<g id="o_x5F_6">
	<polygon class="st0" points="883.6,270.9 883.6,478.6 676,478.6 676,438.6 843.6,438.6 843.6,270.9 	"/>
	<polygon class="st0" points="393.5,438.6 393.5,478.6 185.9,478.6 185.9,270.9 225.9,270.9 225.9,438.6 	"/>
</g>
<g id="o_x5F_5">
	<polygon class="st0" points="843.6,230.9 843.6,438.6 636,438.6 636,398.6 803.6,398.6 803.6,230.9 	"/>
	<polygon class="st0" points="433.5,398.6 433.5,438.6 225.9,438.6 225.9,230.9 265.9,230.9 265.9,398.6 	"/>
</g>
<g id="o_x5F_4">
	<polygon class="st0" points="803.6,190.9 803.6,398.6 596,398.6 596,358.6 763.6,358.6 763.6,190.9 	"/>
	<polygon class="st0" points="473.5,358.6 473.5,398.6 265.9,398.6 265.9,190.9 305.9,190.9 305.9,358.6 	"/>
</g>
<g id="o_x5F_3">
	<polygon class="st0" points="763.6,150.9 763.6,358.6 553.5,358.6 553.5,318.6 723.6,318.6 723.6,150.9 	"/>
	<polygon class="st0" points="553.5,318.6 553.5,358.6 305.9,358.6 305.9,150.9 345.9,150.9 345.9,318.6 	"/>
</g>
<g id="o_x5F_2">
	<polygon class="st0" points="723.6,110.9 723.6,318.6 553.5,318.6 553.5,278.6 683.6,278.6 683.6,110.9 	"/>
	<polygon class="st0" points="553.5,278.6 553.5,318.6 345.9,318.6 345.9,110.9 385.9,110.9 385.9,278.6 	"/>
</g>
<g id="o_x5F_1">
	<polygon class="st0" points="683.6,70.9 683.6,278.6 596,278.6 596,238.6 643.6,238.6 643.6,70.9 	"/>
	<polygon class="st0" points="593.5,238.6 593.5,278.6 385.9,278.6 385.9,70.9 425.9,70.9 425.9,238.6 	"/>
</g>
<rect id="o_x5F_hover" x="425.9" y="30.9" class="st0" width="217.7" height="207.6"/>
</svg>
