<?xml version="1.0" encoding="utf-8"?>
<!-- Generator: Adobe Illustrator 21.1.0, SVG Export Plug-In . SVG Version: 6.00 Build 0)  -->
<svg version="1.1" id="p" xmlns="http://www.w3.org/2000/svg" xmlns:xlink="http://www.w3.org/1999/xlink" x="0px" y="0px"
	 viewBox="0 0 1269.3 1031.1" style="enable-background:new 0 0 1269.3 1031.1;" xml:space="preserve">
<style type="text/css">
	.st0{fill:#1D1D1B;stroke:#E6411E;stroke-width:6;}
</style>
<g id="p_x5F_20">
	<polygon class="st0" points="938,812.9 938,1020.5 730.4,1020.5 730.4,980.5 898,980.5 898,812.9 	"/>
</g>
<g id="p_x5F_19">
	<polygon class="st0" points="898,772.9 898,980.5 690.4,980.5 690.4,941 858.5,941 858.5,772.9 	"/>
</g>
<g id="p_x5F_18">
	<polygon class="st0" points="858.5,733.3 858.5,941 650.8,941 650.8,901 818.5,901 818.5,733.3 	"/>
</g>
<g id="p_x5F_17">
	<polygon class="st0" points="818.5,693.3 818.5,901 610.8,901 610.8,861 778.5,861 778.5,700.9 818.4,700.9 818.4,693.3 	"/>
</g>
<g id="p_x5F_16">
	<polygon class="st0" points="778.5,700.9 778.5,861 570.8,861 570.8,821 738.5,821 738.5,700.9 	"/>
</g>
<g id="p_x5F_15">
	<polygon class="st0" points="738.5,700.9 738.5,821 530.8,821 530.8,781 698.5,781 698.5,700.9 	"/>
</g>
<g id="p_x5F_14">
	<polygon class="st0" points="698.5,700.9 698.5,781 490.8,781 490.8,741 658.5,741 658.5,700.9 	"/>
</g>
<g id="p_x5F_13">
	<polygon class="st0" points="658.5,700.9 658.5,741 450.8,741 450.8,701 618.5,701 618.5,700.9 	"/>
</g>
<g id="p_x5F_12">
	<polygon class="st0" points="618.3,700.9 618.3,701 410.8,701 410.8,661 578.5,661 578.5,493.3 618.3,493.3 618.3,700.9 	"/>
	<polygon class="st0" points="818.4,662.1 818.4,700.9 618.5,700.9 618.5,493.3 618.3,493.3 618.3,493.3 658.3,493.3 658.3,662.1 	
		"/>
</g>
<g id="p_x5F_11">
	<polygon class="st0" points="578.5,453.3 578.5,661 370.8,661 370.8,621 538.5,621 538.5,453.3 	"/>
	<polygon class="st0" points="858.4,622.1 858.4,662.1 658.5,662.1 658.5,533.3 658.3,533.3 658.3,454.5 694.6,454.5 694.6,622.1 	
		"/>
</g>
<g id="p_x5F_10">
	<polygon class="st0" points="538.5,419.5 538.5,621 330.8,621 330.8,581 498.5,581 498.5,419.5 	"/>
	<polygon class="st0" points="898.4,582.1 898.4,622.1 694.6,622.1 694.6,419.5 730.8,419.5 730.8,582.1 	"/>
</g>
<g id="p_x5F_9">
	<polygon class="st0" points="498.5,459.5 498.5,581 290.8,581 290.8,541 458.5,541 458.5,459.5 	"/>
	<polygon class="st0" points="938.4,542.1 938.4,582.1 730.8,582.1 730.8,419.5 770.8,419.5 770.8,542.1 	"/>
</g>
<g id="p_x5F_8">
	<rect x="250.8" y="499.5" class="st0" width="207.6" height="41.4"/>
	<polygon class="st0" points="978.4,499.5 978.4,542.1 770.8,542.1 770.8,454.5 770.8,454.5 770.8,459.5 810.8,459.5 810.8,499.5 	
		"/>
</g>
<g id="p_x5F_7">
	<polygon class="st0" points="458.5,459.5 458.5,499.5 250.8,499.5 250.8,291.9 290.8,291.9 290.8,459.5 	"/>
	<polygon class="st0" points="1018.5,291.9 1018.5,499.5 810.8,499.5 810.8,459.5 978.5,459.5 978.5,291.9 	"/>
</g>
<g id="p_x5F_6">
	<polygon class="st0" points="498.5,419.5 498.5,459.5 290.8,459.5 290.8,251.9 330.8,251.9 330.8,419.5 	"/>
	<polygon class="st0" points="978.5,251.9 978.5,459.5 770.8,459.5 770.8,419.5 938.5,419.5 938.5,251.9 	"/>
</g>
<g id="p_x5F_5">
	<polygon class="st0" points="538.5,379.5 538.5,419.5 330.8,419.5 330.8,211.9 370.8,211.9 370.8,379.5 	"/>
	<polygon class="st0" points="938.5,211.9 938.5,419.5 730.8,419.5 730.8,379.5 898.5,379.5 898.5,211.9 	"/>
</g>
<g id="p_x5F_4">
	<polygon class="st0" points="578.5,339.5 578.5,379.5 370.8,379.5 370.8,171.9 410.8,171.9 410.8,339.5 	"/>
	<polygon class="st0" points="898.5,171.9 898.5,379.5 690.8,379.5 690.8,339.5 858.5,339.5 858.5,171.9 	"/>
</g>
<g id="p_x5F_3">
	<polygon class="st0" points="630.9,299.5 630.9,339.5 410.8,339.5 410.8,131.9 450.8,131.9 450.8,299.5 	"/>
	<polygon class="st0" points="858.5,131.9 858.5,339.5 630.9,339.5 630.9,299.5 818.5,299.5 818.5,131.9 	"/>
</g>
<g id="p_x5F_2">
	<polygon class="st0" points="630.9,259.5 630.9,299.5 450.8,299.5 450.8,91.9 490.8,91.9 490.8,259.5 	"/>
	<polygon class="st0" points="818.5,91.9 818.5,299.5 630.9,299.5 630.9,259.5 778.5,259.5 778.5,91.9 	"/>
</g>
<g id="p_x5F_1">
	<polygon class="st0" points="570.8,219.5 570.8,259.5 490.8,259.5 490.8,51.9 530.8,51.9 530.8,219.5 	"/>
	<polygon class="st0" points="778.5,51.9 778.5,259.5 570.8,259.5 570.8,219.5 738.5,219.5 738.5,51.9 	"/>
</g>
<g id="p_x5F_hover">
	<rect x="530.8" y="11.9" class="st0" width="207.6" height="207.6"/>
</g>
</svg>
