<?xml version="1.0" encoding="utf-8"?>
<!-- Generator: Adobe Illustrator 21.1.0, SVG Export Plug-In . SVG Version: 6.00 Build 0)  -->
<svg version="1.1" id="Layer_2" xmlns="http://www.w3.org/2000/svg" xmlns:xlink="http://www.w3.org/1999/xlink" x="0px" y="0px"
	 viewBox="0 0 1269.3 1031.1" style="enable-background:new 0 0 1269.3 1031.1;" xml:space="preserve">
<style type="text/css">
	.st0{stroke:#E7421E;stroke-width:6;}
</style>
<g id="r_x5F_24">
	<polygon class="st0" points="1262.7,789.8 1262.7,997.5 1055.1,997.5 1055.1,957.5 1222.7,957.5 1222.7,789.8 	"/>
</g>
<g id="r_x5F_23">
	<polygon class="st0" points="1222.7,749.8 1222.7,957.5 1015.1,957.5 1015.1,917.5 1182.7,917.5 1182.7,749.8 	"/>
</g>
<g id="r_x5F_22">
	<polygon class="st0" points="1182.7,709.8 1182.7,917.5 975.1,917.5 975.1,877.5 1142.7,877.5 1142.7,709.8 	"/>
</g>
<g id="r_x5F_21">
	<polygon class="st0" points="1142.7,669.8 1142.7,877.5 935.1,877.5 935.1,837.5 1102.7,837.5 1102.7,669.8 	"/>
</g>
<g id="r_x5F_20">
	<polygon class="st0" points="1102.7,629.8 1102.7,837.5 895.1,837.5 895.1,797.5 1062.7,797.5 1062.7,629.8 	"/>
	<polygon class="st0" points="694.3,790.4 694.3,998 486.6,998 486.6,958 654.3,958 654.3,790.4 	"/>
</g>
<g id="r_x5F_19">
	<polygon class="st0" points="1062.7,589.8 1062.7,797.5 855.1,797.5 855.1,757.5 1022.7,757.5 1022.7,589.8 	"/>
	<polygon class="st0" points="654.3,750.4 654.3,958 446.6,958 446.6,918 614.3,918 614.3,750.4 	"/>
</g>
<g id="r_x5F_18">
	<polygon class="st0" points="1022.7,549.8 1022.7,757.5 815.1,757.5 815.1,717.5 978.6,717.5 978.6,549.8 	"/>
	<polygon class="st0" points="614.3,710.4 614.3,918 406.6,918 406.6,878 574.3,878 574.3,710.4 	"/>
</g>
<g id="r_x5F_17">
	<polygon class="st0" points="978.6,509.8 978.6,717.5 775.1,717.5 775.1,679.2 934.5,679.2 934.5,509.8 	"/>
	<polygon class="st0" points="574.3,679.2 574.3,878 366.6,878 366.6,838 534.3,838 534.3,679.2 	"/>
</g>
<g id="r_x5F_16">
	<rect x="894.5" y="476.6" class="st0" width="40" height="202.6"/>
	<rect x="854.5" y="476.6" class="st0" width="40" height="202.6"/>
	<polygon class="st0" points="534.3,679.2 534.3,838 326.6,838 326.6,798 494.3,798 494.3,679.2 	"/>
</g>
<g id="r_x5F_15">
	<rect x="814.5" y="476.6" class="st0" width="40" height="202.6"/>
	<rect x="774.5" y="476.6" class="st0" width="40" height="202.6"/>
	<polygon class="st0" points="494.3,679.2 494.3,798 286.6,798 286.6,758 454.3,758 454.3,679.2 486.9,679.2 486.9,679.2 	"/>
</g>
<g id="r_x5F_14">
	<rect x="734.5" y="519.2" class="st0" width="40" height="160"/>
	<polygon class="st0" points="734.5,679.2 694.5,679.2 694.5,559.2 734.2,559.2 	"/>
	<polygon class="st0" points="454.3,679.2 454.3,758 246.6,758 246.6,718 414.3,718 414.3,679.2 	"/>
</g>
<g id="r_x5F_13">
	<polygon class="st0" points="694.5,559.2 694.5,679.2 654.3,679.2 654.3,599.2 694.2,599.2 694.2,559.2 	"/>
	<polygon class="st0" points="654.3,599.2 654.3,679.2 606.9,679.2 606.9,679.2 614.2,679.2 614.2,639.2 654.2,639.2 654.2,599.2 	
		"/>
	<polygon class="st0" points="414.3,679.2 414.3,718 206.6,718 206.6,678 374.3,678 374.3,471.6 414.1,471.6 414.1,679.2 	"/>
</g>
<g id="r_x5F_12">
	<polygon class="st0" points="374.3,471.6 374.3,678 166.6,678 166.6,638 334.3,638 334.3,471.6 	"/>
	<polygon class="st0" points="614.2,639.2 614.2,679.2 414.3,679.2 414.3,471.6 454.1,471.6 454.1,639.2 	"/>
</g>
<g id="r_x5F_11">
	<polygon class="st0" points="334.3,396.6 334.3,638 126.6,638 126.6,598 294.3,598 294.3,396.6 	"/>
	<polygon class="st0" points="654.2,599.2 654.2,639.2 454.3,639.2 454.3,550.4 454.1,550.4 454.1,431.6 486.6,431.6 486.6,599.2 	
		"/>
</g>
<g id="r_x5F_10">
	<polygon class="st0" points="294.3,436.6 294.3,598 86.6,598 86.6,558 254.3,558 254.3,436.6 	"/>
	<polygon class="st0" points="694.2,559.2 694.2,599.2 486.9,599.2 486.9,590.4 486.6,590.4 486.6,391.6 486.6,391.6 486.6,396.6 
		526.6,396.6 526.6,559.2 	"/>
</g>
<g id="r_x5F_9">
	<polygon class="st0" points="254.3,476.6 254.3,558 46.6,558 46.6,518 214.3,518 214.3,476.6 	"/>
	<polygon class="st0" points="734.5,519.2 734.5,559.2 526.9,559.2 526.9,471.6 526.6,471.6 526.6,431.6 526.6,431.6 526.6,436.6 
		566.6,436.6 566.6,519.2 	"/>
</g>
<g id="r_x5F_8">
	<polygon class="st0" points="214.3,476.6 214.3,518 6.6,518 6.6,310.4 46.6,310.4 46.6,476.6 	"/>
	<rect x="566.9" y="476.6" class="st0" width="207.3" height="42.6"/>
</g>
<g id="r_x5F_7">
	<polygon class="st0" points="254.3,436.6 254.3,476.6 46.6,476.6 46.6,269 86.6,269 86.6,436.6 	"/>
	<polygon class="st0" points="774.3,269 774.3,476.6 566.9,476.6 566.9,471.6 566.6,471.6 566.6,436.6 734.3,436.6 734.3,269 	"/>
</g>
<g id="r_x5F_6">
	<polygon class="st0" points="294.3,396.6 294.3,436.6 86.6,436.6 86.6,229 126.6,229 126.6,396.6 	"/>
	<polygon class="st0" points="734.3,229 734.3,436.6 526.6,436.6 526.6,396.6 694.3,396.6 694.3,229 	"/>
</g>
<g id="r_x5F_5">
	<polygon class="st0" points="334.3,356.6 334.3,396.6 126.6,396.6 126.6,189 170.6,189 170.6,356.6 	"/>
	<polygon class="st0" points="694.3,189 694.3,396.6 486.6,396.6 486.6,356.6 654.3,356.6 654.3,189 	"/>
</g>
<g id="r_x5F_4">
	<polygon class="st0" points="378.3,316.6 378.3,356.6 170.6,356.6 170.6,149 212.6,149 212.6,316.6 	"/>
	<polygon class="st0" points="654.3,149 654.3,356.6 446.6,356.6 446.6,316.6 614.3,316.6 614.3,149 	"/>
</g>
<g id="r_x5F_3">
	<polygon class="st0" points="406.6,276.6 406.6,316.6 212.6,316.6 212.6,109 258.6,109 258.6,276.6 	"/>
	<polygon class="st0" points="614.3,109 614.3,316.6 406.6,316.6 406.6,276.6 574.3,276.6 574.3,109 	"/>
</g>
<g id="r_x5F_2">
	<polygon class="st0" points="366.6,236.6 366.6,276.6 258.6,276.6 258.6,69 315.6,69 315.6,236.6 	"/>
	<polygon class="st0" points="574.3,69 574.3,276.6 366.6,276.6 366.6,236.6 523.3,236.6 523.3,69 	"/>
</g>
<g id="r_x5F_1_1_">
	<rect id="r_x5F_1" x="315.6" y="29" class="st0" width="207.6" height="207.6"/>
</g>
</svg>
