<?xml version="1.0" encoding="utf-8"?>
<!-- Generator: Adobe Illustrator 21.1.0, SVG Export Plug-In . SVG Version: 6.00 Build 0)  -->
<svg version="1.1" id="s" xmlns="http://www.w3.org/2000/svg" xmlns:xlink="http://www.w3.org/1999/xlink" x="0px" y="0px"
	 viewBox="0 0 1269.3 1031.1" style="enable-background:new 0 0 1269.3 1031.1;" xml:space="preserve">
<style type="text/css">
	.st0{fill:#1D1D1B;stroke:#E6411E;stroke-width:6;}
</style>
<g id="s_x5F_15">
	<polygon class="st0" points="377.8,617.6 377.8,657.5 210.1,657.5 210.1,825.2 170.1,825.2 170.1,617.6 	"/>
</g>
<g id="s_x5F_14">
	<rect x="329.6" y="166.9" class="st0" width="42.9" height="46.8"/>
	<polygon class="st0" points="417.8,657.5 417.8,697.5 250.1,697.5 250.1,865.2 210.1,865.2 210.1,657.5 	"/>
</g>
<g id="s_x5F_13">
	<rect x="372.5" y="126.1" class="st0" width="40" height="87.6"/>
	<polygon class="st0" points="457.8,697.5 457.8,737.5 290.1,737.5 290.1,905.2 250.1,905.2 250.1,697.5 	"/>
</g>
<g id="s_x5F_12">
	<rect x="532.1" y="213.7" class="st0" width="120.4" height="40.1"/>
	<rect x="412.5" y="86.1" class="st0" width="39.6" height="127.6"/>
	<polygon class="st0" points="497.8,737.5 497.8,777.5 330.1,777.5 330.1,945.2 290.1,945.2 290.1,737.5 	"/>
	<polygon class="st0" points="532.1,213.7 532.1,253.8 366.4,253.8 366.4,419.5 329.6,419.5 329.6,213.7 	"/>
</g>
<g id="s_x5F_11">
	<rect x="574" y="253.8" class="st0" width="44.8" height="39.9"/>
	<rect x="452.1" y="46.1" class="st0" width="40.4" height="167.6"/>
	<polygon class="st0" points="532.1,777.5 532.1,817.4 370.9,817.4 370.9,985.2 330.1,985.2 330.1,777.5 	"/>
</g>
<g id="s_x5F_10">
	<rect x="492.5" y="6.1" class="st0" width="40" height="207.6"/>
	<rect x="370.9" y="817.4" class="st0" width="40" height="207.6"/>
	<polygon class="st0" points="574,253.8 574,293.7 532.1,293.7 532.1,293.8 406.4,293.8 406.4,461.4 366.4,461.4 366.4,253.8 	"/>
</g>
<g id="s_x5F_9">
	<rect x="532.5" y="6.1" class="st0" width="40" height="207.6"/>
	<rect x="410.9" y="817.4" class="st0" width="40" height="207.6"/>
	<polygon class="st0" points="618.8,293.8 618.8,333.8 574,333.8 574,333.7 532.1,333.7 532.1,333.8 446.4,333.8 446.4,501.4 
		406.4,501.4 406.4,293.8 	"/>
</g>
<g id="s_x5F_8">
	<rect x="572.5" y="6.1" class="st0" width="40" height="207.6"/>
	<rect x="450.9" y="817.4" class="st0" width="40" height="207.6"/>
	<polygon class="st0" points="654,333.8 654,375.6 489,375.6 489,541.4 446.4,541.4 446.4,333.8 	"/>
</g>
<g id="s_x5F_7">
	<rect x="612.5" y="6.1" class="st0" width="40" height="207.6"/>
	<rect x="490.9" y="817.4" class="st0" width="41.3" height="207.6"/>
	<polygon class="st0" points="696.6,375.6 696.6,415.6 529,415.6 529,583.2 489,583.2 489,375.6 	"/>
</g>
<g id="s_x5F_6">
	<rect x="652.5" y="6.1" class="st0" width="40" height="207.6"/>
	<rect x="532.1" y="817.4" class="st0" width="38.7" height="207.6"/>
	<polygon class="st0" points="736.6,415.6 736.6,455.6 569,455.6 569,623.2 529,623.2 529,415.6 	"/>
</g>
<g id="s_x5F_5">
	<polygon class="st0" points="900.1,6.1 900.1,41.2 732.5,41.2 732.5,213.7 692.5,213.7 692.5,6.1 	"/>
	<polygon class="st0" points="778.5,985.1 778.5,1025 570.9,1025 570.9,817.4 610.9,817.4 610.9,985.1 	"/>
	<polygon class="st0" points="776.6,455.6 776.6,497.4 610.8,497.4 610.8,663.2 569,663.2 569,455.6 	"/>
</g>
<g id="s_x5F_4">
	<polygon class="st0" points="940.1,41.2 940.1,81.5 772.9,81.5 772.9,248.8 732.5,248.8 732.5,41.2 	"/>
	<polygon class="st0" points="818.5,945.1 818.5,985.1 610.9,985.1 610.9,777.4 650.9,777.4 650.9,945.1 	"/>
	<polygon class="st0" points="818.5,497.4 818.5,537.4 650.8,537.4 650.8,705.1 610.8,705.1 610.8,497.4 	"/>
</g>
<g id="s_x5F_3">
	<polygon class="st0" points="980.5,81.5 980.5,121.5 812.9,121.5 812.9,289.2 772.9,289.2 772.9,81.5 	"/>
	<polygon class="st0" points="858.5,905.1 858.5,945.1 650.9,945.1 650.9,745.1 690.8,745.1 690.8,785.1 690.9,785.1 690.9,905.1 	
		"/>
	<polygon class="st0" points="858.5,537.4 858.5,577.4 690.8,577.4 690.8,745.1 650.8,745.1 650.8,537.4 	"/>
</g>
<g id="s_x5F_2">
	<polygon class="st0" points="1020.5,121.5 1020.5,161.5 852.9,161.5 852.9,329.2 812.9,329.2 812.9,121.5 	"/>
	<polygon class="st0" points="898.5,862.1 898.5,905.1 690.9,905.1 690.9,785.1 730.9,785.1 730.9,862.1 	"/>
	<polygon class="st0" points="730.8,737.4 730.9,745.1 730.9,785.1 690.9,785.1 690.9,705.1 690.8,705.1 690.8,577.4 898.5,577.4 
		898.5,617.4 730.8,617.4 	"/>
</g>
<g id="s_x5F_1">
	<polygon class="st0" points="1060.5,161.5 1060.5,200.2 891.5,200.2 891.5,369.2 852.9,369.2 852.9,161.5 	"/>
	<polygon class="st0" points="938.5,617.4 938.5,654.5 776.6,654.5 776.6,654.7 768.1,654.7 768.1,862.1 730.9,862.1 730.9,663.2 
		730.8,663.2 730.8,617.4 	"/>
</g>
<g id="s_x5F_hover">
	<rect x="891.5" y="200.2" class="st0" width="207.6" height="207.6"/>
	<rect x="768.1" y="654.7" class="st0" width="207.6" height="207.4"/>
</g>
</svg>
