<?xml version="1.0" encoding="utf-8"?>
<!-- Generator: Adobe Illustrator 21.1.0, SVG Export Plug-In . SVG Version: 6.00 Build 0)  -->
<svg version="1.1" id="u" xmlns="http://www.w3.org/2000/svg" xmlns:xlink="http://www.w3.org/1999/xlink" x="0px" y="0px"
	 viewBox="0 0 1269.3 1031.1" style="enable-background:new 0 0 1269.3 1031.1;" xml:space="preserve">
<style type="text/css">
	.st0{fill:#1D1D1B;stroke:#E6411E;stroke-width:6;}
</style>
<g id="u_x5F_16">
	<polygon class="st0" points="1023,840 1023,880 815.5,880 815.5,672.4 855.4,672.4 855.4,840 	"/>
</g>
<g id="u_x5F_15">
	<polygon class="st0" points="1063,800 1063,840 855.5,840 855.5,632.4 855.5,632.4 855.5,638.6 895.4,638.6 895.4,800 	"/>
</g>
<g id="u_x5F_14">
	<polygon class="st0" points="983,880 983,920 775.5,920 775.5,712.4 815.4,712.4 815.4,880 	"/>
	<polygon class="st0" points="1103,760 1103,800 895.4,800 895.4,672.4 895.5,672.4 895.5,678.6 935.4,678.6 935.4,760 	"/>
</g>
<g id="u_x5F_13">
	<polygon class="st0" points="943.1,920 943.1,960 735.5,960 735.5,752.3 775.4,752.3 775.4,920 	"/>
	<polygon class="st0" points="1143,718.6 1143,760 935.4,760 935.4,712.4 935.5,712.4 935.5,718.6 	"/>
</g>
<g id="u_x5F_12">
	<polygon class="st0" points="903.1,960 903.1,1000 695.5,1000 695.5,792.4 735.5,792.4 735.5,960 	"/>
	<polygon class="st0" points="1143.1,510.9 1143.1,718.6 935.5,718.6 935.5,678.6 1103.1,678.6 1103.1,510.9 	"/>
</g>
<g id="u_x5F_11">
	<polygon class="st0" points="813.1,1000 813.1,1000.1 605.5,1000.1 605.5,960 695.5,960 695.5,1000 	"/>
	<rect x="694.5" y="752.3" class="st0" width="40" height="40.1"/>
	<polygon class="st0" points="1103.1,470.9 1103.1,678.6 895.5,678.6 895.5,638.6 1063.1,638.6 1063.1,470.9 	"/>
</g>
<g id="u_x5F_10">
	<polygon class="st0" points="695.5,792.4 695.5,960 526.9,960 526.9,920 694.5,920 694.5,792.4 	"/>
	<polygon class="st0" points="1063.1,430.9 1063.1,638.6 855.5,638.6 855.5,598.6 1023.1,598.6 1023.1,430.9 	"/>
</g>
<g id="u_x5F_9">
	<polygon class="st0" points="694.5,712.3 694.5,920 486.9,920 486.9,880 654.5,880 654.5,712.3 	"/>
	<polygon class="st0" points="1023.1,390.9 1023.1,598.6 815.5,598.6 815.5,558.6 983.1,558.6 983.1,390.9 	"/>
</g>
<g id="u_x5F_8">
	<polygon class="st0" points="654.5,672.3 654.5,880 446.9,880 446.9,839.2 613.8,839.2 613.8,672.3 	"/>
	<polygon class="st0" points="983.1,350.9 983.1,558.6 775.5,558.6 775.5,518.6 943.1,518.6 943.1,350.9 	"/>
</g>
<g id="u_x5F_7">
	<polygon class="st0" points="613.8,631.6 613.8,839.2 406.2,839.2 406.2,799.2 573.8,799.2 573.8,631.6 	"/>
	<polygon class="st0" points="943.1,310.9 943.1,518.6 735.5,518.6 735.5,478.6 903.1,478.6 903.1,310.9 	"/>
</g>
<g id="u_x5F_6">
	<polygon class="st0" points="573.8,591.6 573.8,799.2 366.2,799.2 366.2,759.2 533.8,759.2 533.8,591.6 	"/>
	<polygon class="st0" points="903.1,270.9 903.1,478.6 695.5,478.6 695.5,438.6 863.1,438.6 863.1,270.9 	"/>
</g>
<g id="u_x5F_5">
	<polygon class="st0" points="533.8,551.6 533.8,759.2 326.2,759.2 326.2,719.2 493.8,719.2 493.8,551.6 	"/>
	<polygon class="st0" points="863.1,230.9 863.1,438.6 655.5,438.6 655.5,398.6 823.1,398.6 823.1,230.9 	"/>
</g>
<g id="u_x5F_4">
	<polygon class="st0" points="493.8,511.6 493.8,719.2 286.2,719.2 286.2,679.2 453.8,679.2 453.8,511.6 	"/>
	<polygon class="st0" points="823.1,190.9 823.1,398.6 615.5,398.6 615.5,358.6 783.1,358.6 783.1,190.9 	"/>
</g>
<g id="u_x5F_3">
	<polygon class="st0" points="453.8,471.6 453.8,679.2 246.2,679.2 246.2,639.2 413.8,639.2 413.8,471.6 	"/>
	<polygon class="st0" points="783.1,150.9 783.1,358.6 575.5,358.6 575.5,318.6 743.1,318.6 743.1,150.9 	"/>
</g>
<g id="u_x5F_2">
	<polygon class="st0" points="413.8,431.6 413.8,639.2 206.2,639.2 206.2,599.2 373.8,599.2 373.8,431.6 	"/>
	<polygon class="st0" points="743.1,110.9 743.1,318.6 535.5,318.6 535.5,278.6 703.1,278.6 703.1,110.9 	"/>
</g>
<g id="u_x5F_1">
	<polygon class="st0" points="373.8,391.6 373.8,599.2 166.2,599.2 166.2,559.2 333.8,559.2 333.8,391.6 	"/>
	<polygon class="st0" points="703.1,70.9 703.1,278.6 495.5,278.6 495.5,238.6 663.1,238.6 663.1,70.9 	"/>
</g>
<g id="u_x5F_hover">
	<rect x="126.2" y="351.6" class="st0" width="207.6" height="207.6"/>
	<rect x="455.5" y="30.9" class="st0" width="207.6" height="207.6"/>
</g>
</svg>
