<?xml version="1.0" encoding="utf-8"?>
<!-- Generator: Adobe Illustrator 21.1.0, SVG Export Plug-In . SVG Version: 6.00 Build 0)  -->
<svg version="1.1" id="x" xmlns="http://www.w3.org/2000/svg" xmlns:xlink="http://www.w3.org/1999/xlink" x="0px" y="0px"
	 viewBox="0 0 1269.3 1031.1" style="enable-background:new 0 0 1269.3 1031.1;" xml:space="preserve">
<style type="text/css">
	.st0{fill:#1D1D1B;stroke:#E6411E;stroke-width:6;}
</style>
<g id="x_x5F_19">
	<polygon class="st0" points="398,961.5 398,1001.5 191.5,1001.5 191.5,791.2 231.3,791.2 231.3,961.2 231.7,961.2 231.7,961.5 	"/>
	<polygon class="st0" points="1118.4,791 1118.4,998.6 910.8,998.6 910.8,958.6 1078.4,958.6 1078.4,791 	"/>
</g>
<g id="x_x5F_18">
	<polygon class="st0" points="438.1,920.9 438.1,961.2 231.7,961.2 231.7,751 271.6,751 271.6,920.9 	"/>
	<polygon class="st0" points="1078.4,751 1078.4,958.6 870.8,958.6 870.8,918.6 1038.4,918.6 1038.4,751 	"/>
</g>
<g id="x_x5F_17">
	<polygon class="st0" points="478.3,880.4 478.3,920.9 271.6,920.9 271.6,710.4 311.4,710.4 311.4,880.4 	"/>
	<polygon class="st0" points="1038.4,711 1038.4,918.6 830.8,918.6 830.8,878.6 998.4,878.6 998.4,711 	"/>
</g>
<g id="x_x5F_16">
	<polygon class="st0" points="518.1,839.8 518.1,880.4 311.4,880.4 311.4,669.9 351.2,669.9 351.2,839.8 	"/>
	<polygon class="st0" points="998.4,671 998.4,878.6 790.8,878.6 790.8,838.6 958.4,838.6 958.4,671 	"/>
</g>
<g id="x_x5F_15">
	<polygon class="st0" points="558,799.3 558,839.8 351.2,839.8 351.2,629.3 391,629.3 391,799.3 	"/>
	<polygon class="st0" points="958.4,631 958.4,838.6 750.8,838.6 750.8,798.6 918.4,798.6 918.4,631 	"/>
</g>
<g id="x_x5F_14">
	<polygon class="st0" points="597.8,758.7 597.8,799.3 391,799.3 391,588.8 430.9,588.8 430.9,758.7 	"/>
	<polygon class="st0" points="918.4,591 918.4,798.6 710.8,798.6 710.8,758.6 878.4,758.6 878.4,591 	"/>
</g>
<g id="x_x5F_13">
	<polygon class="st0" points="670.8,718.7 670.8,758.7 430.9,758.7 430.9,518.6 470.7,518.6 470.7,718.7 	"/>
	<polygon class="st0" points="878.4,551 878.4,758.6 670.8,758.6 670.8,718.7 677.5,718.7 677.5,718.6 838.4,718.6 838.4,551 	"/>
</g>
<g id="x_x5F_12">
	<polygon class="st0" points="670.8,718.6 670.8,718.7 470.7,718.7 470.7,518.6 470.8,518.6 470.8,558.6 510.8,558.6 510.8,598.6 
		510.9,598.6 510.9,678.7 630.8,678.7 630.8,718.6 	"/>
	<polygon class="st0" points="838.4,518.5 838.4,718.6 630.8,718.6 630.8,678.7 714.7,678.7 714.7,678.6 798.4,678.6 798.4,518.5 	
		"/>
</g>
<g id="x_x5F_11">
	<polygon class="st0" points="597.8,678.6 597.8,678.7 510.9,678.7 510.9,598.6 550.8,598.6 550.8,638.6 590.8,638.6 590.8,678.6 	
		"/>
	<polygon class="st0" points="798.4,518.5 798.4,678.6 590.8,678.6 590.8,638.6 758.4,638.6 758.4,518.5 	"/>
</g>
<g id="x_x5F_10">
	<polygon class="st0" points="758.4,518.5 758.4,638.6 550.8,638.6 550.8,598.6 718.4,598.6 718.4,518.5 	"/>
</g>
<g id="x_x5F_9">
	<polygon class="st0" points="718.4,518.5 718.4,598.6 510.9,598.6 510.9,558.6 677.5,558.6 677.5,518.5 	"/>
</g>
<g id="x_x5F_8">
	<polygon class="st0" points="677.5,518.6 677.5,558.6 470.8,558.6 470.8,518.6 638.5,518.6 638.4,518.6 	"/>
</g>
<g id="x_x5F_7">
	<polygon class="st0" points="430.9,518.5 430.9,478.6 598.4,478.6 598.4,311 638.4,311 638.4,518.5 	"/>
	<polygon class="st0" points="838.4,478.5 838.4,518.5 638.4,518.5 638.4,310.9 671.1,310.9 671.1,478.5 	"/>
</g>
<g id="x_x5F_6">
	<polygon class="st0" points="598.4,271 598.4,478.6 390.8,478.6 390.8,438.6 558.4,438.6 558.4,271 	"/>
	<polygon class="st0" points="878.8,438.5 878.8,478.5 671.1,478.5 671.1,270.9 711.1,270.9 711.1,438.5 	"/>
</g>
<g id="x_x5F_5">
	<polygon class="st0" points="558.4,231 558.4,438.6 350.8,438.6 350.8,398.6 518.4,398.6 518.4,231 	"/>
	<polygon class="st0" points="918.8,398.5 918.8,438.5 711.1,438.5 711.1,230.9 751.1,230.9 751.1,398.5 	"/>
</g>
<g id="x_x5F_4">
	<polygon class="st0" points="518.4,191 518.4,398.6 310.8,398.6 310.8,358.6 478.4,358.6 478.4,191 	"/>
	<polygon class="st0" points="958.8,358.9 958.8,398.5 751.1,398.5 751.1,190.9 790.8,190.9 790.8,358.9 	"/>
</g>
<g id="x_x5F_3">
	<polygon class="st0" points="478.4,151 478.4,358.6 270.8,358.6 270.8,318.6 438.4,318.6 438.4,151 	"/>
	<polygon class="st0" points="998.4,318.9 998.4,358.5 791.1,358.5 791.1,151.3 830.8,151.3 830.8,318.9 	"/>
</g>
<g id="x_x5F_2">
	<polygon class="st0" points="438.4,111 438.4,318.6 230.8,318.6 230.8,278.6 398.4,278.6 398.4,111 	"/>
	<polygon class="st0" points="1038.4,278.9 1038.4,318.9 830.8,318.9 830.8,111.3 870.8,111.3 870.8,278.9 	"/>
</g>
<g id="x_x5F_1">
	<polygon class="st0" points="398.4,71 398.4,278.6 190.8,278.6 190.8,238.8 358.5,238.8 358.5,71 	"/>
	<polygon class="st0" points="1078.4,238.9 1078.4,278.9 870.8,278.9 870.8,71.3 910.8,71.3 910.8,238.9 	"/>
</g>
<g id="x_x5F_hover">
	<rect x="150.9" y="31.1" class="st0" width="207.6" height="207.6"/>
	<rect x="910.8" y="31.3" class="st0" width="207.6" height="207.6"/>
</g>
</svg>
