<?xml version="1.0" encoding="utf-8"?>
<!-- Generator: Adobe Illustrator 21.1.0, SVG Export Plug-In . SVG Version: 6.00 Build 0)  -->
<svg version="1.1" id="Layer_1" xmlns="http://www.w3.org/2000/svg" xmlns:xlink="http://www.w3.org/1999/xlink" x="0px" y="0px"
	 viewBox="0 0 1248.5 1043.1" style="enable-background:new 0 0 1248.5 1043.1;" xml:space="preserve">
<style type="text/css">
	.st0{fill:none;}
	.st1{fill:none;stroke:#231F20;stroke-width:1.2;stroke-miterlimit:10;}
	.st2{fill:none;stroke:#231F20;stroke-width:5;stroke-linejoin:bevel;}
	.st3{fill:none;stroke:#231F20;stroke-width:5;}
	.st4{fill:none;stroke:#231F20;stroke-width:0.236;stroke-linecap:round;stroke-linejoin:round;}
	.st5{fill:none;stroke:#231F20;stroke-width:0.945;stroke-linecap:round;stroke-linejoin:round;}
	.st6{enable-background:new    ;}
	.st7{fill:#231F20;}
	.st8{fill:url(#block12-section8_2_);}
</style>
<pattern  y="1043.1" width="211" height="148.5" patternUnits="userSpaceOnUse" id="block12-section8_1_" viewBox="0 -148.5 211 148.5" style="overflow:visible;">
	<g>
		<rect y="-148.5" class="st0" width="211" height="148.5"/>
		<g>
			<rect y="-148.5" class="st0" width="211" height="148.5"/>
			<g>
				<rect y="-148.5" class="st0" width="211" height="148.5"/>
				<g>
					<rect y="-148.5" class="st0" width="211" height="148.5"/>
					<g>
						<rect y="-148.5" class="st0" width="211" height="148.5"/>
						<g>
							<rect y="-148.5" class="st0" width="211" height="148.5"/>
							<g>
								<rect y="-148.5" class="st0" width="211" height="148.5"/>
								<g>
									<rect y="-148.5" class="st0" width="211" height="148.5"/>
									<g>
										<rect y="-148.5" class="st0" width="211" height="148.5"/>
										<line class="st1" x1="2.5" y1="0" x2="2.5" y2="-148.5"/>
										<line class="st1" x1="7.3" y1="0" x2="7.3" y2="-148.5"/>
										<line class="st1" x1="12.1" y1="0" x2="12.1" y2="-148.5"/>
										<line class="st1" x1="16.9" y1="0" x2="16.9" y2="-148.5"/>
										<line class="st1" x1="21.7" y1="0" x2="21.7" y2="-148.5"/>
										<line class="st1" x1="26.5" y1="0" x2="26.5" y2="-148.5"/>
										<line class="st1" x1="31.2" y1="0" x2="31.2" y2="-148.5"/>
										<line class="st1" x1="36" y1="0" x2="36" y2="-148.5"/>
										<line class="st1" x1="40.8" y1="0" x2="40.8" y2="-148.5"/>
										<line class="st1" x1="45.6" y1="0" x2="45.6" y2="-148.5"/>
										<line class="st1" x1="50.4" y1="0" x2="50.4" y2="-148.5"/>
										<line class="st1" x1="55.2" y1="0" x2="55.2" y2="-148.5"/>
										<line class="st1" x1="60" y1="0" x2="60" y2="-148.5"/>
										<line class="st1" x1="64.8" y1="0" x2="64.8" y2="-148.5"/>
										<line class="st1" x1="69.6" y1="0" x2="69.6" y2="-148.5"/>
										<line class="st1" x1="74.3" y1="0" x2="74.3" y2="-148.5"/>
										<line class="st1" x1="79.1" y1="0" x2="79.1" y2="-148.5"/>
										<line class="st1" x1="83.9" y1="0" x2="83.9" y2="-148.5"/>
										<line class="st1" x1="88.7" y1="0" x2="88.7" y2="-148.5"/>
										<line class="st1" x1="93.5" y1="0" x2="93.5" y2="-148.5"/>
										<line class="st1" x1="98.3" y1="0" x2="98.3" y2="-148.5"/>
										<line class="st1" x1="103.1" y1="0" x2="103.1" y2="-148.5"/>
										<line class="st1" x1="107.9" y1="0" x2="107.9" y2="-148.5"/>
										<line class="st1" x1="112.7" y1="0" x2="112.7" y2="-148.5"/>
										<line class="st1" x1="117.4" y1="0" x2="117.4" y2="-148.5"/>
										<line class="st1" x1="122.2" y1="0" x2="122.2" y2="-148.5"/>
										<line class="st1" x1="127" y1="0" x2="127" y2="-148.5"/>
										<line class="st1" x1="131.8" y1="0" x2="131.8" y2="-148.5"/>
										<line class="st1" x1="136.6" y1="0" x2="136.6" y2="-148.5"/>
										<line class="st1" x1="141.4" y1="0" x2="141.4" y2="-148.5"/>
										<line class="st1" x1="146.2" y1="0" x2="146.2" y2="-148.5"/>
										<line class="st1" x1="151" y1="0" x2="151" y2="-148.5"/>
										<line class="st1" x1="155.8" y1="0" x2="155.8" y2="-148.5"/>
										<line class="st1" x1="160.5" y1="0" x2="160.5" y2="-148.5"/>
										<line class="st1" x1="165.3" y1="0" x2="165.3" y2="-148.5"/>
										<line class="st1" x1="170.1" y1="0" x2="170.1" y2="-148.5"/>
										<line class="st1" x1="174.9" y1="0" x2="174.9" y2="-148.5"/>
										<line class="st1" x1="179.7" y1="0" x2="179.7" y2="-148.5"/>
										<line class="st1" x1="184.5" y1="0" x2="184.5" y2="-148.5"/>
										<line class="st1" x1="189.3" y1="0" x2="189.3" y2="-148.5"/>
										<line class="st1" x1="194.1" y1="0" x2="194.1" y2="-148.5"/>
										<line class="st1" x1="198.9" y1="0" x2="198.9" y2="-148.5"/>
										<line class="st1" x1="203.6" y1="0" x2="203.6" y2="-148.5"/>
										<line class="st1" x1="208.4" y1="0" x2="208.4" y2="-148.5"/>
									</g>
								</g>
							</g>
						</g>
					</g>
				</g>
			</g>
		</g>
	</g>
</pattern>
<g id="block-12">
	<polygon class="st2" points="1245.1,197.2 1245.4,197 1245.4,132 1245,132.2 1245,132.2 1245.4,132 1242.5,130.1 1235.1,134.5 
		1097.9,55.3 1088.4,60.8 1088.4,33.3 1088.2,33.2 1088.6,32.9 1036.8,3.1 998.7,25.1 997.3,24.2 948,52.8 948,38 947.8,37.9 
		948.2,37.7 945.1,35.8 471.5,309.3 412.9,275.6 403.5,280.7 394.4,275.6 309.7,324.5 309.9,324.6 309.9,324.6 309.9,330 
		304.9,332.7 305.1,332.9 305.1,332.9 305.1,334.6 304.9,332.7 304.9,398 311.5,401.7 311.6,401.7 311.6,401.7 311.6,401.7 
		311.5,401.7 250.5,437 250.5,502.2 250.7,502.3 250.7,502.5 253.8,504.1 263.5,498.5 274.4,504.8 250.3,518.6 250.3,527.2 
		159.1,580 44.3,752.8 44.3,810.8 3.1,834.5 3.1,899.8 206.8,1017.5 277.1,976.8 365.4,925.6 409.6,951 409.6,951 409.7,951 
		409.7,951.1 409.7,951 409.9,951 409.7,951.1 422.4,943.6 427.9,946.7 427.9,948.4 423.5,950.9 423.5,950.9 423.4,950.9 
		423.4,954.2 459.9,967.2 474.5,953.3 488,940.4 488,940.4 490.5,938.1 498.2,940.8 522.7,917.8 530.5,920.7 554.8,897.9 
		554.8,897.7 555.9,896.7 555.9,896.3 563.4,899.2 563.4,898.9 563.5,899 582.1,881.4 582.1,874.9 690.5,813.7 690.5,748.4 
		690.5,748 697.9,756.2 698.7,756.8 699.6,757.3 700.6,757.7 701.4,758.1 702.5,758.5 703.3,758.7 704.1,759.1 705.2,759.3 
		706,759.5 706.8,759.7 707.9,760 708.7,760 709.7,760.2 710.6,760.2 711.6,760.2 712.4,760.2 713.5,760.2 714.3,760.2 715.3,760.2 
		716.1,760 717.2,759.7 718,759.5 719,759.3 719.9,759.1 720.9,758.7 721.7,758.5 722.8,758.1 723.6,757.7 724.6,757.3 725.7,756.8 
		726.5,756.2 727.5,755.8 816.8,707.7 897.4,672.7 897.8,672.5 898,672.3 898.2,672.3 898.6,672.1 898.9,672.1 899.1,671.9 
		899.3,671.7 899.7,671.5 899.9,671.5 900.1,671.3 900.3,671.1 900.5,671.1 900.7,670.9 900.9,670.7 901.3,670.4 901.5,670.4 
		901.8,670.2 902,670 902.2,669.8 902.4,669.6 902.6,669.6 902.6,669.4 902.8,669.2 903,669 903.2,668.8 903.4,668.6 903.6,668.4 
		903.8,668.2 904,668 904.2,667.8 904.2,667.5 913.1,655.5 913.4,655.1 913.8,654.5 914,654.1 914.2,653.7 914.4,653 914.6,652.6 
		914.6,652.2 914.8,651.8 914.8,651.2 914.8,650.8 914.8,650.4 914.8,600.1 914.8,586.5 914.8,585.1 914.8,584.7 914.8,584.3 
		914.8,583.6 914.6,583.2 914.4,582.8 914.4,582.4 914.2,582 914,581.6 913.6,581.2 913.4,580.7 912.9,580.3 912.7,579.7 
		912.3,579.3 911.9,578.9 911.5,578.5 911.1,578 910.6,577.9 910.5,577.6 910.4,577.6 913.2,574 913.4,573.3 913.8,572.9 914,572.5 
		914.2,571.9 914.4,571.5 914.6,571.1 914.6,570.5 914.8,570 914.8,569.6 914.8,569.2 914.8,568.6 914.8,516 1186.5,359.2 
		1186.5,359.1 1186.8,358.8 1186.8,312.5 1245.4,278.7 1245.4,213.4 1245.4,213.4 1245.4,213.3 1245.4,213.3 1242.5,211.6 
		1235,215.8 1232.7,214.4 1224,209.4 1245.1,197.3 	"/>
	<polygon class="st3" points="882.6,406.9 481.6,638.3 343.2,558.2 343.2,544.3 274.4,504.8 250.3,518.6 250.3,583.7 253.4,585.6 
		263.2,579.8 343.2,626 343.2,639.9 481.6,719.7 895.5,481.1 895.5,415.5 	"/>
	<polygon class="st3" points="1245.4,213.3 1242.5,211.6 1235,215.8 1223.9,209.3 882.4,407 895.5,415.7 895.5,481.1 1245.4,278.6 	
		"/>
	<polygon class="st4" points="274.4,504.8 250.3,518.6 250.3,583.7 253.4,585.6 263.2,579.8 343.2,626 343.2,639.9 481.6,719.7 
		1245.4,278.6 1245.4,213.3 1242.5,211.6 1235,215.8 1223.9,209.3 481.6,638.3 343.2,558.2 343.2,544.3 	"/>
	<polygon class="st3" points="44.3,752.8 44.3,817.9 283,871 348.8,772.2 460.7,707.4 343.4,639.7 343.4,625.8 263.5,579.7 
		253.8,585.5 250.7,583.6 250.7,527.3 159.4,580.1 	"/>
	<polygon class="st3" points="1186.5,312.6 1186.5,359.2 914.6,516.1 914.4,501.8 914,500.4 913.2,499.1 910.9,496.6 908.8,495 
		908.8,489.2 894.6,481.1 	"/>
	<polygon class="st3" points="1245.1,132.2 1242.2,130.4 1234.7,134.7 1097.7,55.6 1088.4,61 1088.4,33.3 1036.6,3.5 998.5,25.4 
		997,24.6 948,52.9 948,38 944.9,36.2 767.3,139.1 1004,271.8 1004,336.9 1245.1,197.3 	"/>
	<path class="st3" d="M368.1,369.1l-0.2,0.1L368.1,369.1 M602.6,568.6L706,508.8l0,0l32.9-19.4v-65.1L502.2,291.6l-30.8,17.8l0,0
		l-58.6-33.7l-9.1,5.2l-9.1-5.2l-84.7,48.9v5.6l-4.8,2.7v65.2l6.6,3.7l-61.1,35.5v65.2l3.1,1.7l9.7-5.6l79.9,46v13.9l138.3,79.9"/>
	<g>
		<path class="st5" d="M44.3,858.3L3.1,834.5v65.3l203.6,117.7v-65.3l20.7-12 M914.8,515.9l272-157.1v-46.6 M913.2,574v-65.3
			 M909,494.8V489 M904.3,585.8v-65.1 M897.4,591v-65.1 M816.8,626v-65.3 M727.6,674.1V609 M697.9,674.7l0.8,0.4l0.8,0.4l1,0.4
			l0.8,0.4l1,0.4l0.8,0.4l0.8,0.2l1,0.2l0.8,0.4l0.8,0.2h1l0.8,0.2l1,0.2h0.8h1h0.8h1h0.8l1-0.2l0.8-0.2h1l0.8-0.2l1-0.2l0.8-0.4
			l1-0.2l0.8-0.4l1-0.4l0.8-0.2l1-0.6l1-0.4l0.8-0.4l1-0.6l89.3-48.1l80.6-35h0.4l0.2-0.2l0.2-0.2h0.4l0.2-0.2l0.2-0.2h0.2l0.4-0.2
			l0.2-0.2h0.2l0.2-0.2l0.2-0.2l0.2-0.2h0.2l0.4-0.2l0.2-0.2l0.2-0.2h0.2l0.2-0.2l0.2-0.2l0.2-0.2v-0.2l0.2-0.2h0.2l0.2-0.2l0.2-0.2
			l0.2-0.2v-0.2l0.2-0.2l0.2-0.2l0.2-0.2V586l8.9-11.8l0.2-0.6l0.4-0.4l0.2-0.4l0.2-0.6l0.2-0.4l0.2-0.4v-0.6l0.2-0.4V570v-0.4V569
			v-65.1 M685.1,601.9l12.8,7.5 M672.2,609.4v50.4l25.7,14.9v-65.3l0.8,0.4l0.8,0.6l1,0.4l0.8,0.4l1,0.2l0.8,0.4l0.8,0.2l1,0.4
			l0.8,0.2l0.8,0.2l1,0.2h0.8l1,0.2h0.8h1h0.8h1h0.8l1-0.2h0.8l1-0.2l0.8-0.2l1-0.2l0.8-0.2l1-0.4l0.8-0.4l1-0.2l0.8-0.4l1-0.4
			l1-0.6l0.8-0.4l1-0.4l89.3-48.3l80.6-34.8l0.4-0.2l0.2-0.2h0.2l0.4-0.2l0.2-0.2h0.2l0.2-0.2l0.4-0.2h0.2l0.2-0.2l0.2-0.2l0.2-0.2
			h0.2l0.2-0.2l0.4-0.2l0.2-0.2h0.2l0.2-0.2l0.2-0.2l0.2-0.2l0.2-0.2v-0.2h0.2l0.2-0.2l0.2-0.2l0.2-0.2l0.2-0.2v-0.2l0.2-0.2
			l0.2-0.2h0.2v-0.2l8.9-12l0.2-0.4l0.4-0.6l0.2-0.4l0.2-0.4l0.2-0.6l0.2-0.4v-0.4l0.2-0.6v-0.4v-0.4v-0.4v-0.6v-0.4v-0.4l-0.2-0.4
			l-0.2-0.4v-0.4l-0.2-0.6l-0.2-0.4l-0.4-0.4l-0.2-0.4l-0.4-0.4l-0.2-0.4l-0.4-0.4l-0.4-0.4l-0.4-0.4l-0.4-0.4l-0.6-0.4l-0.4-0.4
			l-0.6-0.4l-0.4-0.4l-0.6-0.4l-4.6-2.5l5.2-2.9l-14.1-8.1 M636.8,629.9l35.4,20.5 M348.7,772.3V707 M283,871v-65.3 M283,871v-65.3
			 M44.3,752.8L283,805.7l65.7-98.6l55.7-32.1 M250.5,527.1L159.1,580L44.3,752.8v65.1L283,871l65.7-98.6L461,707.5"/>
	</g>
	<g>
		<path class="st5" d="M386.7,894.3l35.9,20.6 M386.7,897.4v-3.1l4.4-2.5l31.5,18.2 M382.6,899.9l40.1,23 M382.6,903v-3.1l4.2-2.5
			l35.9,20.7 M378.2,905.6l44.3,25.5 M378.2,908.5l44.3,25.6V931l0.2-0.2 M374,911l44.3,25.5v3.1 M374,914.1V911l4.2-2.5v-3l4.4-2.5
			l40.1,23 M369.8,916.6l4.2-2.5l44.3,25.5l-4.4,2.5 M369.8,919.8v-3.2l44,25.5v3.1 M365.4,922.2l4.4-2.5l44,25.4l-4.2,2.5
			 M365.4,925.6v-3.3l44.3,25.5v3.3L365.4,925.6z M488,909.1l2.5-2.5 M488,912.2v-3.1 M423.5,950.9l4.4-2.5 M477,804.5l4.2-2.5
			 M477,807.6l36.8,22.1 M548.8,840.8l2.9-2.9 M545.6,849.8v-2.9 M542.5,855.9v-3.2 M539.4,861.9v-3.1 M536.4,868v-3.2 M530.2,920.8
			v-44.1 M522.5,917.9v-40.8 M519.6,883.2v-3.1 M517.9,822.9v3.1l33.8,11.9 M492.4,856.3l40.9,14.6 M483.8,867.5v3.2l35.7,12.5
			l-3.1,2.9 M482,924.4v-3.1 M551.7,834.8l-33.8-11.9l2.3-1.5l-39-22.5v3.2l36.8,21.3 M513.7,828.3l35.1,12.5v3.1l-35.1-12.6V828.3
			l2.3-1.2l-39-22.6v3.2l-4.4,2.5 M475.7,936.5v-3.2 M472.6,813.2v-3.1l39,22.6l-2.3,1.2 M469.2,948.5v-3.1 M468.4,815.5l4.2-2.3
			l36.8,21.1 M468.4,818.7v-3.2l39,22.6l-2.3,1.5 M466.3,894.9l24.2,8.7 M490.6,903.7l7.5,2.3l18.3-16.7 M466.3,894.9v3.1
			 M464.2,821.2l4.2-2.5l36.8,21.3 M464.2,824.3v-3.1l39,22.5l-2.5,1.5 M463,960.9v-3.2 M462.8,900.2l3.6-2.1l24.1,8.3 M462.8,903.3
			v-3.1l25.3,9 M459.8,826.8l4.4-2.5l36.5,21.3 M459.8,829.9v-3.1l39,22.6l-2.3,1.2 M459.8,967.2v-3.4 M458.6,905.7l26.5,9.2
			 M458.6,908.9v-3.2l4.2-2.5l25.3,8.9 M456.7,889.5l9.6,5.4v0.2 M455.7,832.5l4.2-2.5l36.8,21.1 M455.7,835.6v-3.2l39,22.5
			l-2.3,1.3v3.1l40.9,14.6 M454.2,911.4l27.8,9.8l3.1-3.2 M452.3,892v-0.2 M451.3,837.9l4.4-2.3l36.7,21.1 M451.3,841v-3.1l39,22.5
			l-2.3,1.5 M449.8,917l29,10.2 M449.8,920.2V917l4.4-2.5 M447.1,843.5l39.1,22.5l-2.3,1.5l35.7,12.6l2.9-3L488,865v-3.1l42.2,14.8
			l3.1-2.7v-3.2l3.1-2.9l-39.9-14.2v-3.2l39.9,14.2l2.9-2.9l-38.6-13.6v-3.1l38.6,13.6l3.2-2.9l-37.4-13.2v-3.1l37.4,13.1l3.1-2.9
			l-36.3-12.8v-3.2l36.3,13l3.1-2.9 M447.1,846.7l36.8,21.3 M445.4,922.7l30.2,10.6l3.2-2.9 M442.7,849.2l39,22.6l-2.3,1.2l37,13.1
			v3.2l-37-13.2V873 M442.7,852.3l36.7,21.3 M441,928.3l31.3,11 M441,931.4v-3.1l4.4-2.5 M436.6,934l32.6,11.5l3.1-2.9 M466.1,951.5
			l-33.8-11.9l4.4-2.5 M427.9,945.2l35.1,12.5l3.1-3.1 M423.5,950.9l4.4-2.5 M432.3,942.7l-4.4,2.4v3.2l35.1,12.5l-3.2,2.9
			l-36.3-12.9v3.3l36.3,13l28.2-26.7 M418.3,936.5l4.2-2.3 M409.7,951.1l12.9-7.5l5.2,3.1 M403.9,871.9l41.6,24 M403.9,875.1v-3.2
			l4.4-2.5l41.6,24 M399.7,877.6l38.8,22.4 M399.7,880.7v-3.2l4.2-2.5l39,22.5 M395.3,883.2l36.3,20.9 M395.3,886.1v-2.9l4.4-2.5
			l36.1,20.9 M391.1,888.6l33.4,19.5 M391.1,891.8v-3.2l4.2-2.5l33.5,19.5 M386.7,894.3l35.9,20.6 M386.7,897.4v-3.1l4.4-2.5
			l31.5,18.2 M382.6,899.9l40.1,23 M382.6,903v-3.1l4.2-2.5l35.9,20.7 M378.2,905.6l44.3,25.5 M378.2,908.5l44.3,25.6V931l0.2-0.2
			 M374,911l44.3,25.5v3.1 M374,914.1V911l4.2-2.5v-3l4.4-2.5l40.1,23 M369.8,916.6l4.2-2.5l44.3,25.5l-4.4,2.5 M369.8,919.8v-3.2
			l44,25.5v3.1 M365.4,922.2l4.4-2.5l44,25.4l-4.2,2.5 M365.4,925.6v-3.3l44.3,25.5v3.3L365.4,925.6z M488,909.1l2.5-2.5 M488,912.2
			v-3.1 M555.9,896.3l7.5,2.9v-65.4 M548.8,903.4l7.1-6.7V831l-1.5,1.2 M1088.6,60.7V32.9 M1052.6,58v-1.7 M948.2,52.6V37.7
			 M913.1,655.5v-65.3 M910.5,577.6v0.2l0.6,0.2l0.4,0.4l0.4,0.4l0.4,0.4l0.4,0.4l0.2,0.6l0.4,0.4l0.2,0.4l0.4,0.4l0.2,0.4l0.2,0.4
			v0.4l0.2,0.4l0.2,0.4v0.6v0.4v0.4 M904.2,667.5v-65.3 M897.4,672.7v-65.3 M816.8,707.7v-65.3 M727.5,755.8v-65.3 M697.9,756.2V691
			 M680.3,736.7v-65.3 M582.1,874.9l108.3-61.3v-65.3 M566.2,728.3l49.7-28.6l64.4,37.1l17.6,19.5l0.8,0.6l0.8,0.4l1,0.4l0.8,0.4
			l1,0.4l0.8,0.2l0.8,0.4l1,0.2l0.8,0.2l0.8,0.2l1,0.2h0.8l1,0.2h0.8h1h0.8h1h0.8h1l0.8-0.2l1-0.2l0.8-0.2l1-0.2l0.8-0.2l1-0.4
			l0.8-0.2l1-0.4l0.8-0.4l1-0.4l1-0.4l0.8-0.6l1-0.4l89.3-48.1l80.6-35l0.4-0.2l0.2-0.2h0.2l0.4-0.2h0.2l0.2-0.2l0.2-0.2l0.4-0.2
			h0.2l0.2-0.2l0.2-0.2h0.2l0.2-0.2l0.2-0.2l0.4-0.2h0.2l0.2-0.2l0.2-0.2l0.2-0.2l0.2-0.2h0.2v-0.2l0.2-0.2l0.2-0.2l0.2-0.2l0.2-0.2
			l0.2-0.2l0.2-0.2l0.2-0.2l0.2-0.2v-0.2l8.9-12l0.2-0.4l0.4-0.6l0.2-0.4l0.2-0.4l0.2-0.6l0.2-0.4v-0.4l0.2-0.4v-0.6v-0.4v-0.4
			v-65.3v0.4v0.6v0.4l-0.2,0.4v0.4l-0.2,0.6l-0.2,0.4l-0.2,0.4l-0.2,0.6l-0.4,0.4l-0.2,0.4l-8.9,12v0.2l-0.2,0.2l-0.2,0.2l-0.2,0.2
			v0.2l-0.2,0.2H902l-0.2,0.2l-0.2,0.2l-0.2,0.2v0.2l-0.2,0.2H901l-0.2,0.2l-0.2,0.2l-0.2,0.2l-0.2,0.2h-0.4l-0.2,0.2l-0.2,0.2
			l-0.2,0.2H899l-0.2,0.2l-0.2,0.2h-0.4l-0.2,0.2l-0.2,0.2h-0.2l-0.4,0.2l-0.2,0.2h-0.2l-0.4,0.2l-80.6,35l-89.3,48.1l-1,0.6
			l-0.8,0.4l-1,0.4l-1,0.4l-0.8,0.4l-1,0.4l-0.8,0.4l-1,0.2l-0.8,0.2l-1,0.2l-0.8,0.2l-1,0.2l-0.8,0.2h-1l-0.8,0.2h-1h-0.8h-1
			l-0.8-0.2h-1l-0.8-0.2l-1-0.2l-0.8-0.2l-0.8-0.2l-1-0.2l-0.8-0.4l-0.8-0.2l-1-0.4l-0.8-0.4l-1-0.4l-0.8-0.4l-0.8-0.6l-17.6-19.5
			l-57.6-33.4 M563.5,899l18.6-17.6v-65.3 M555.4,677.1l10.8,13.3 M496.8,774.2l69.4-18.6v-65.3l-63.4,17 M481.6,638.1v-65.3
			 M476.9,807.5v-11.3 M418.7,819.2v-65.1 M413.7,816.3V751 M348.6,854v-65.3 M343.3,493.1v65l138.4,80L1245.4,197v-65 M343.3,574.5
			v65.3l138.4,79.8l763.8-440.9v-65.3 M331,880.3l145.8-84.1l43.4,25 M556,831l7.5,2.7l18.6-17.6l-5.4-3.1l113.5-65 M309.7,324.5
			v5.6 M304.9,332.7V398l6.6,3.7 M283,952.4v-65.1 M283,952.4v-65.1 M263.3,498.3l80,46 M263.3,514.4l92,53.2l-12,6.8l138.4,80
			l763.8-441.1l-2.9-1.7l-7.5,4.1l-11.2-6.4 M263.3,579.7l80,46.2 M263.3,433v65.3l-9.7,5.6 M253.6,585.5l9.7-5.8v-65.3l-9.7,5.8
			 M250.5,437v65.3l3.1,1.7v-65.1L250.5,437L368,369.2l-63-36.5l9.7-5.4l-5-2.9l84.7-48.9l9.1,5.2l9.3-5.2l58.6,33.8L945.1,35.8
			l3.1,1.9l-20.1,11.6l13,7.5l56.1-32.5l1.5,0.8l38.1-22l51.8,29.8l-38.1,22.2l2.1,1.2l-1.4,0.8l19.7,11.4l4.1-2.5l2.1,1.2l20.9-12
			l137.1,79.1l7.5-4.4l2.9,1.9L481.6,572.9l-138.4-79.8l12-7l-92-53l-9.7,5.8 M274.5,504.7l-24,13.9v65.1l3.1,1.9v-65.3l-3.1-1.7
			L274.5,504.7z M206.7,1017.5l158.6-91.6 M160.1,925.3l46.6,26.9 M44.3,834.3l9.3-14.1 M480,718.7l-61.3,35.4l-5-3.1l-65,37.7
			L283,887.4l-238.6-53v65.3L283,952.4l65.7-98.4l65-37.7l5,2.9l78.1-45v-63.4 M3.1,834.5l41.2-23.8"/>
	</g>
	<polygon class="st0" points="422.7,908.9 422.7,943.4 428,946.3 428,945.1 432.4,942.5 432.4,914.4 	"/>
	<path class="st5" d="M477.1,807.1l36.9,22.2 M408.3,865.6l3.8-2.2l5.2,3.1l25.4-14.6v-3.2l4.4-2.5V843l4.2-2.5l36.9,21.4
		 M549.1,840.4l3-2.9 M546,849.4v-2.9 M542.9,855.5v-3.2 M539.7,861.6v-3.1 M536.8,867.7v-3.2 M530.5,876.4v44.2 M522.7,917.8v-40.9
		 M519.8,883v-3.1 M518.1,822.4v3.1l34,12 M498.1,940.7v-34.8 M492.6,855.9l41.1,14.6 M490.6,937.8v-34.2 M484,867.2v3.2l35.8,12.6
		l-3.1,2.9 M482.1,924.2v-3.1 M552.1,834.3l-34-11.9l2.3-1.5l-39.2-22.6v3.2l36.9,21.3 M513.9,827.9l35.2,12.6v3.1L513.9,831V827.9
		l2.3-1.3L477.1,804v3.2l-4.4,2.5 M475.8,936.4v-3.2 M472.6,812.7v-3.1l39.2,22.7l-2.3,1.2 M469.3,948.5v-3.1 M468.4,815l4.2-2.3
		l36.9,21.2 M468.4,818.2V815l39.2,22.7l-2.3,1.5 M466.4,894.7v3.1 M464.3,820.7l4.2-2.5l36.9,21.3 M464.3,823.9v-3.1l39.2,22.6
		l-2.5,1.5 M463,960.9v-3.2 M462.8,903.1V900l25.4,9 M459.9,826.4l4.4-2.5l36.7,21.4 M459.9,829.5v-3.1L499,849l-2.3,1.2
		 M459.9,967.2v-3.4 M458.6,905.6l26.6,9.2 M458.6,908.7v-3.2l4.2-2.5l25.4,9 M456.7,889.3l9.7,5.4v0.2 M455.7,832l4.2-2.5
		l36.9,21.2 M455.7,835.2V832l39.2,22.6l-2.3,1.3v3.1l41.1,14.7 M454.2,911.2l27.9,9.9l3.1-3.2 M452.3,891.7v-0.2 M451.3,837.5
		l4.4-2.3l36.9,21.2 M451.3,840.6v-3.1l39.2,22.6l-2.3,1.5 M449.8,916.9l29.1,10.3 M449.8,920v-3.1l4.4-2.5 M447.1,843.1l39.2,22.6
		l-2.3,1.5l35.8,12.6l2.9-3l-34.6-12.1v-3.1l42.3,14.8l3.1-2.7v-3.2l3.1-2.9l-40-14.2v-3.2l40,14.3l2.9-2.9L500.9,848v-3.1
		l38.8,13.6l3.2-2.9l-37.5-13.2v-3.1l37.5,13.2l3.1-2.9l-36.4-12.8v-3.2l36.4,13l3.1-2.9 M447.1,846.3l36.9,21.4 M445.4,922.6
		l30.4,10.7l3.2-2.9 M442.7,848.8l39.2,22.7l-2.3,1.2l37.1,13.1v3.2l-37.1-13.2v-3.1 M442.7,851.9l36.9,21.4 M441,928.2l31.4,11
		 M441,931.3v-3.1l4.4-2.5 M436.6,933.9l32.7,11.5l3.1-2.9 M466.2,951.5l-34-12l4.4-2.5 M427.8,945.2l35.2,12.6l3.1-3.1
		 M432.2,942.7l-4.4,2.5v3.2L463,961l-3.2,2.9l-36.5-13v3.4l36.5,13l30.6-29.2l7.7,2.7l24.5-23l7.8,2.9l24.3-22.8v-66l-2.7,2.5v3.2
		 M418.2,936.4l4.2-2.3 M409.6,951l13-7.5l5.2,3.1 M403.7,871.6l41.7,24.1 M403.7,874.8v-3.2l4.4-2.5l41.7,24.1 M399.5,877.3
		l39,22.4 M399.5,880.5v-3.2l4.2-2.5l39.2,22.6 M395.1,883l36.4,21 M395.1,885.8V883l4.4-2.5l36.3,20.9 M390.9,888.4l33.5,19.5
		 M390.9,891.6v-3.2l4.2-2.5"/>
	<polygon class="st0" points="422.8,909 456.8,889.2 466.3,894.8 432.4,914.5 	"/>
	<path class="st5" d="M422.4,943.6v-34.4l9.7,5.5 M477.3,803.9l4.2-2.5"/>
	<polygon class="st0" points="442.8,908.3 432.3,914.1 432.4,923.8 445,915.6 	"/>
	<path class="st5" d="M422.5,909l34.2-19.8 M408,868.8v-3.1l44.4,25.6l4.4-2.3l9.7,5.6l-34.3,19.8v28.2l34.1,12v-3.1l3.1-3
		L436.6,937v-3.2l4.4-2.5l31.6,11.2v-3.2l3.4-2.9l-30.5-10.7v-3.2l4.4-2.5l29.3,10.3v-3.2l3.2-2.9l-28-9.9v-3.1l4.4-2.5l26.7,9.3
		v-3.2l3-2.7"/>
	<g class="st6">
		<path class="st7" d="M440.9,603.7v-41.2l23.4,13.5v7.7l-16.1-9.3v9l14.2,8.2v7.7l-14.2-8.2v9.1l16.4,9.5v7.7L440.9,603.7z"/>
	</g>
	<g class="st6">
		<path class="st7" d="M469.4,680.2c0,12.4-6.1,17.1-15.8,11.5l-12.7-7.3v-41.2l12.7,7.3C463.3,656.1,469.4,667.9,469.4,680.2z
			 M448.3,655.1v25.8l5.4,3.1c5.3,3.1,8.2,0.3,8.2-8.2c0-8.4-2.9-14.6-8.2-17.6L448.3,655.1z"/>
	</g>
	<g class="st6">
		<path class="st7" d="M249.7,844.9c5,1,7.4-1.3,8.1-5.1l9.6,2c-1.6,8.2-7.3,13-17.8,10.8c-12.2-2.6-20-12.9-19.9-25.5
			c0.1-12.5,7.9-19.7,20.1-17.1c10.5,2.2,16.1,9.3,17.6,18.2l-9.6-2c-0.7-4.1-3.1-7.5-8.1-8.5c-6.5-1.4-10,3-10,11.5
			C239.8,837.7,243.2,843.5,249.7,844.9z"/>
	</g>
	<g class="st6">
		<path class="st7" d="M231.7,928.5l0.2-41.2l18.2,3.8c9.9,2.1,15.1,7.1,15,14.6c0,3.6-2.9,6.9-6.1,7.3c4,2,7.5,6.2,7.4,10.9
			c0,7.9-5.7,10.7-15.4,8.7L231.7,928.5z M241.4,923.4l8.9,1.9c4.3,0.9,6.5-0.6,6.5-3.9c0-3.2-2.1-5.6-6.5-6.5l-8.9-1.9V923.4z
			 M249.7,907.8c4.3,0.9,6.1-0.7,6.1-3.6c0-3.1-2-5.3-6-6.1l-8.2-1.7v9.7L249.7,907.8z"/>
	</g>
	<g>
		<g class="st6">
			<path class="st7" d="M190.1,987.1l-13.1-7.5l-2.6,7.4l-7.3-4.2l12.3-34.1l8.4,4.9l12.3,48.4l-7.7-4.4L190.1,987.1z M179.2,973.2
				l8.8,5.1l-4.3-17.7l-0.1-0.1L179.2,973.2z"/>
		</g>
	</g>
	<polygon class="st3" points="1004,336.9 1004,271.8 767.3,139.1 502.2,291.6 738.9,424.3 738.9,489.4 	"/>
	<path class="st3" d="M615.9,699.7v-57.4l279.6-161.2L909,489l-5.2,2.9c0,0,9.7,4.1,10.4,8.3s0.6,62.9,0.6,69.8c0,4.5-3.8,7-3.8,7
		s3.7,4.5,3.7,8.5c0,6.5,0,56.1,0,62.3c0,8.4-8.9,19.5-14.5,23.3c-5.6,3.7-83.5,36.7-83.5,36.7s-74,41.5-86.8,46.7
		s-21.2,8.2-32.1,1.7c-10.9-6.4-17.6-19.5-17.6-19.5L615.9,699.7z"/>
	<polygon class="st0" points="340.8,865.7 283,952.4 44.3,899.6 44.3,834.3 53.7,820.2 44.3,817.9 44.3,810.8 3.1,834.5 3.1,899.8 
		206.8,1017.5 348.6,935.5 348.6,870.2 	"/>
	<polygon class="st7" points="367.6,946.3 360.6,966.2 339.5,966.8 356.3,979.6 350.3,999.8 367.6,987.8 385,999.8 379,979.6 
		395.7,966.8 374.6,966.2 	"/>
	<path class="st7" d="M306.8,984.3c-15.9,0-28.9,12.9-28.9,28.9c0,15.9,12.9,28.9,28.9,28.9c15.9,0,28.9-12.9,28.9-28.9
		C335.7,997.2,322.8,984.3,306.8,984.3z M304.2,1028.7c-6.7,0-12.1-5.4-12.1-12.1c0-4.5,2.5-8.7,6.6-10.8l0.3,0.5l0.4,2.9
		c-2.5,1.6-4,4.4-4,7.3c0,4.9,4,8.8,8.8,8.8c4.1,0,7.6-2.8,8.6-6.7l0.4,0.1l1.7,3.4C312.9,1026.2,308.8,1028.7,304.2,1028.7z
		 M320,1024.8l-1.5,0.7l-0.7-1.5l-4.8-10.7l-10.5,0.1h-1.6l-0.1-1.6l-0.6-14.3c-0.9-0.6-1.6-1.7-1.6-2.9c0-1.9,1.6-3.5,3.5-3.5
		s3.5,1.6,3.5,3.5c0,1.4-0.9,2.7-2.1,3.2l0.3,6.8h8.4v3.3H304l0.1,2.1l9.9-0.1h1.1l0.5,1l4.6,10.2l3.3-1.5l1.3,3L320,1024.8z"/>
	<polygon class="st7" points="472.8,222.5 465.7,242.4 444.7,243 461.4,255.8 455.4,276 472.8,264 490.1,276 484.1,255.8 500.8,243 
		479.8,242.4 	"/>
	<path class="st7" d="M533.5,180.3c-15.9,0-28.9,12.9-28.9,28.9c0,15.9,12.9,28.9,28.9,28.9c15.9,0,28.9-12.9,28.9-28.9
		S549.5,180.3,533.5,180.3z M530.9,224.7c-6.7,0-12.1-5.4-12.1-12.1c0-4.5,2.5-8.7,6.6-10.8l0.3,0.5l0.4,2.9c-2.5,1.6-4,4.4-4,7.3
		c0,4.9,4,8.8,8.8,8.8c4.1,0,7.6-2.8,8.6-6.7l0.4,0.1l1.7,3.4C539.6,222.2,535.5,224.7,530.9,224.7z M546.7,220.8l-1.5,0.7l-0.7-1.5
		l-4.8-10.7l-10.5,0.1h-1.6l-0.1-1.6l-0.6-14.3c-0.9-0.6-1.6-1.7-1.6-2.9c0-1.9,1.6-3.5,3.5-3.5s3.5,1.6,3.5,3.5
		c0,1.4-0.9,2.7-2.1,3.2l0.3,6.8h8.4v3.3h-8.2l0.1,2.1l9.9-0.1h1.1l0.5,1l4.6,10.2l3.3-1.5l1.3,3L546.7,220.8z"/>
	<polygon class="st3" points="615.9,699.7 680.3,736.7 690.5,750.4 690.5,813.7 582.1,874.9 582.1,881.4 563.4,899.2 555.9,896.7 
		530.5,920.7 522.7,917.8 498.2,940.8 490.5,938.1 459.9,967.2 423.4,954.2 423.4,950.9 427.9,948.4 422.4,943.6 409.9,951 
		365.4,925.6 348.6,935.5 348.6,870.2 340.8,865.7 348.6,854 413.7,816.3 418.7,819.2 496.8,774.2 566.2,755.6 566.2,728.3 	"/>
</g>
<pattern  id="block12-section8_2_" xlink:href="#block12-section8_1_" patternTransform="matrix(1.4437 0 0 1.4437 31043.1465 105972.6641)">
</pattern>
<polygon id="block12-section8" class="st8" points="767.3,139.1 502.2,291.6 738.9,424.3 738.9,489.4 1004,336.9 1004,271.8 "/>
</svg>
