<?xml version="1.0" encoding="utf-8"?>
<!-- Generator: Adobe Illustrator 21.1.0, SVG Export Plug-In . SVG Version: 6.00 Build 0)  -->
<svg version="1.1" id="Layer_1" xmlns="http://www.w3.org/2000/svg" xmlns:xlink="http://www.w3.org/1999/xlink" x="0px" y="0px"
	 viewBox="0 0 1248.5 1043.1" style="enable-background:new 0 0 1248.5 1043.1;" xml:space="preserve">
<style type="text/css">
	.st0{fill:none;}
	.st1{fill:none;stroke:#231F20;stroke-width:1.2;stroke-miterlimit:10;}
	.st2{fill:#231F20;}
	.st3{fill:#333333;}
	.st4{fill:url(#block2-section2_1_);}
</style>
<pattern  y="1043.1" width="211" height="148.5" patternUnits="userSpaceOnUse" id="block2-section2_2_" viewBox="0 -148.5 211 148.5" style="overflow:visible;">
	<g>
		<rect y="-148.5" class="st0" width="211" height="148.5"/>
		<g>
			<rect y="-148.5" class="st0" width="211" height="148.5"/>
			<g>
				<rect y="-148.5" class="st0" width="211" height="148.5"/>
				<g>
					<rect y="-148.5" class="st0" width="211" height="148.5"/>
					<g>
						<rect y="-148.5" class="st0" width="211" height="148.5"/>
						<g>
							<rect y="-148.5" class="st0" width="211" height="148.5"/>
							<g>
								<rect y="-148.5" class="st0" width="211" height="148.5"/>
								<g>
									<rect y="-148.5" class="st0" width="211" height="148.5"/>
									<line class="st1" x1="2.5" y1="-148.5" x2="2.5" y2="0"/>
									<line class="st1" x1="7.3" y1="-148.5" x2="7.3" y2="0"/>
									<line class="st1" x1="12.1" y1="-148.5" x2="12.1" y2="0"/>
									<line class="st1" x1="16.9" y1="-148.5" x2="16.9" y2="0"/>
									<line class="st1" x1="21.7" y1="-148.5" x2="21.7" y2="0"/>
									<line class="st1" x1="26.5" y1="-148.5" x2="26.5" y2="0"/>
									<line class="st1" x1="31.2" y1="-148.5" x2="31.2" y2="0"/>
									<line class="st1" x1="36" y1="-148.5" x2="36" y2="0"/>
									<line class="st1" x1="40.8" y1="-148.5" x2="40.8" y2="0"/>
									<line class="st1" x1="45.6" y1="-148.5" x2="45.6" y2="0"/>
									<line class="st1" x1="50.4" y1="-148.5" x2="50.4" y2="0"/>
									<line class="st1" x1="55.2" y1="-148.5" x2="55.2" y2="0"/>
									<line class="st1" x1="60" y1="-148.5" x2="60" y2="0"/>
									<line class="st1" x1="64.8" y1="-148.5" x2="64.8" y2="0"/>
									<line class="st1" x1="69.6" y1="-148.5" x2="69.6" y2="0"/>
									<line class="st1" x1="74.3" y1="-148.5" x2="74.3" y2="0"/>
									<line class="st1" x1="79.1" y1="-148.5" x2="79.1" y2="0"/>
									<line class="st1" x1="83.9" y1="-148.5" x2="83.9" y2="0"/>
									<line class="st1" x1="88.7" y1="-148.5" x2="88.7" y2="0"/>
									<line class="st1" x1="93.5" y1="-148.5" x2="93.5" y2="0"/>
									<line class="st1" x1="98.3" y1="-148.5" x2="98.3" y2="0"/>
									<line class="st1" x1="103.1" y1="-148.5" x2="103.1" y2="0"/>
									<line class="st1" x1="107.9" y1="-148.5" x2="107.9" y2="0"/>
									<line class="st1" x1="112.7" y1="-148.5" x2="112.7" y2="0"/>
									<line class="st1" x1="117.4" y1="-148.5" x2="117.4" y2="0"/>
									<line class="st1" x1="122.2" y1="-148.5" x2="122.2" y2="0"/>
									<line class="st1" x1="127" y1="-148.5" x2="127" y2="0"/>
									<line class="st1" x1="131.8" y1="-148.5" x2="131.8" y2="0"/>
									<line class="st1" x1="136.6" y1="-148.5" x2="136.6" y2="0"/>
									<line class="st1" x1="141.4" y1="-148.5" x2="141.4" y2="0"/>
									<line class="st1" x1="146.2" y1="-148.5" x2="146.2" y2="0"/>
									<line class="st1" x1="151" y1="-148.5" x2="151" y2="0"/>
									<line class="st1" x1="155.8" y1="-148.5" x2="155.8" y2="0"/>
									<line class="st1" x1="160.5" y1="-148.5" x2="160.5" y2="0"/>
									<line class="st1" x1="165.3" y1="-148.5" x2="165.3" y2="0"/>
									<line class="st1" x1="170.1" y1="-148.5" x2="170.1" y2="0"/>
									<line class="st1" x1="174.9" y1="-148.5" x2="174.9" y2="0"/>
									<line class="st1" x1="179.7" y1="-148.5" x2="179.7" y2="0"/>
									<line class="st1" x1="184.5" y1="-148.5" x2="184.5" y2="0"/>
									<line class="st1" x1="189.3" y1="-148.5" x2="189.3" y2="0"/>
									<line class="st1" x1="194.1" y1="-148.5" x2="194.1" y2="0"/>
									<line class="st1" x1="198.9" y1="-148.5" x2="198.9" y2="0"/>
									<line class="st1" x1="203.6" y1="-148.5" x2="203.6" y2="0"/>
									<line class="st1" x1="208.4" y1="-148.5" x2="208.4" y2="0"/>
								</g>
							</g>
						</g>
					</g>
				</g>
			</g>
		</g>
	</g>
</pattern>
<g>
	<path class="st0" d="M1063.2,207.9l51.8,30l2-1.2c0.1,0,0.2-0.1,0.2-0.1c0.1,0,0.2,0,0.2,0.1l18.1,10.5l1.1-0.7l85.8-49.6l0,0
		l15.7-9v-81.2L1063.2,207.9z"/>
	<path class="st0" d="M1046.7,423.7L943,363.9l-79.6,46.2l0,0l-1.3,0.7l-3.7,2.2l0,0l-7.2,4.1l-4.2,2.4l16,8.4l79.8-46.1
		c0.1,0,0.1-0.1,0.2-0.1l0,0l0,0c0,0,0,0,0.1,0l0,0l0,0l0,0c0.1,0,0.1,0,0.2,0.1l119.3,68.6L1181,382l-15.2-8.7L1064.3,432l-1.6,0.9
		l0,0l0,0L1046.7,423.7z"/>
	<path class="st0" d="M1063.2,532l101.3-58.5l0.1-0.1l16.9-9.8v-31.5v-49.3l-118.3,68.3V532z"/>
	<polygon class="st0" points="360.7,695.2 478.9,763.7 478.9,682.8 360.7,614.3 	"/>
	<path class="st0" d="M182.4,927.3v80.9l176.6-102c0.2-0.1,0.5-0.2,0.8-0.3v-81L182.4,927.3z"/>
	<polygon class="st0" points="182.4,822.3 182.4,903 359.7,800.6 359.7,719.8 	"/>
	<path class="st0" d="M181.4,822.2L10.5,723.4v80.9l0.7,0.4l14.9,8.5c0.2,0.1,0.4,0.3,0.5,0.4L181.4,903V822.2z M158.8,873
		l-12.7-7.3v-41.2l12.7,7.3c9.7,5.6,15.8,17.3,15.8,29.7S168.5,878.6,158.8,873z"/>
	<polygon class="st0" points="360.7,719.7 360.7,800.6 478.9,868.7 478.9,788.2 	"/>
	<polygon class="st0" points="695.6,221.8 302.9,448.8 481,542.7 481.4,542.9 857.8,325.4 	"/>
	<polygon class="st0" points="598.6,668.2 598.6,614.3 479.9,682.8 479.9,764.2 583,704 583.1,704.1 598.6,695.1 	"/>
	<polygon class="st0" points="532.6,572.5 535,571.2 554.7,582.7 848.6,412.9 858.4,407.2 858.4,326.1 482.3,543.5 	"/>
	<polygon class="st0" points="858.4,431.8 575.8,595 602.4,610.6 603.6,611.3 603.6,611.3 603.6,659.6 858.4,512.5 	"/>
	<path class="st0" d="M1237.3,106.1L1066.7,7.5L700.5,219l162.1,103.5l80-46.3c0.1-0.1,0.3-0.1,0.5,0l119.3,68.9l118.3-68.3
		l-48-28.1l0,0l0,0l1.9-1.1l-17.4-10.1l-2,1.2c-0.1,0.1-0.3,0.1-0.5,0l-52.7-30.5c-0.1-0.1-0.2-0.2-0.2-0.4s0.1-0.3,0.2-0.4
		L1237.3,106.1z"/>
	<path class="st0" d="M158.8,839.5l-5.4-3.1v25.8l5.4,3.1c5.3,3,8.2,0.3,8.2-8.2C167,848.7,164.1,842.5,158.8,839.5z"/>
	<path class="st0" d="M1186.5,274.5v48.3l34.4-19.8c0.1-0.1,0.2-0.2,0.3-0.3l16.9-9.7v-80.7l-0.1-0.1l-79.2,46L1186.5,274.5z"/>
	<polygon class="st0" points="1054.3,593.3 1062.2,588.7 1062.2,556.7 1044.1,546.2 1044.1,587.4 	"/>
	<path class="st0" d="M349.4,1019.7l-4.6-10.2l-0.5-1h-1.1l-9.9,0.1l-0.1-2.1h8.2v-3.3H333l-0.3-6.8c1.2-0.5,2.1-1.8,2.1-3.2
		c0-1.9-1.6-3.5-3.5-3.5s-3.5,1.6-3.5,3.5c0,1.2,0.7,2.3,1.6,2.9l0.6,14.3l0.1,1.6h1.6l10.5-0.1l4.8,10.7l0.7,1.5l1.5-0.7l4.8-2.2
		l-1.3-3L349.4,1019.7z"/>
	<path class="st0" d="M1181,487.2l-15.2-8.7l-103.1,59.6l-1.2-0.7l-118.3-68l-81,46.6L603.6,665.3v32.6l-15.5,9l15.5,9.2v49.5
		l61.1,35.2l19.9-11.4c0.1,0,0.1-0.1,0.2-0.1l0,0l0,0l0,0l0,0l0,0l0,0l0,0c0.1,0,0.2,0,0.2,0.1l11.7,6.8h0.1l86.4-50v-13.6l0,0l0,0
		l0,0c0-0.1,0-0.1,0-0.2l0,0l0,0c0-0.1,0.1-0.1,0.1-0.2l0,0l0,0l0,0l47.9-27.8c0.1-0.1,0.3-0.1,0.5,0c0.1,0.1,0.2,0.2,0.2,0.3
		l21.9,12.5l249.6-144.1l-6.3-3.5l-34.1,19.5l0,0c0,0.4-0.5,0.6-0.7,0.4l-7.9,4.5c-0.1,0.1-0.3,0.1-0.5,0l-10.5-6l0,0
		c-0.2,0-0.3-0.1-0.4-0.2l-36.4-21c-0.1,0-0.1-0.1-0.2-0.1l0,0l0,0l0,0l0,0l0,0c0-0.1-0.1-0.1-0.1-0.2l0,0c0-0.1,0-0.1,0.1-0.2l0,0
		l0,0l0,0l0,0v-0.1l0,0l0,0l0,0l0,0l0.1-0.1l36.6-21.1c0.1-0.1,0.2-0.1,0.3-0.1c0.1,0,0.2,0,0.3,0.1l18.7,10.8L1181,487.2z"/>
	<path class="st0" d="M342,1017.2c-1,3.9-4.5,6.7-8.6,6.7c-4.8,0-8.8-3.9-8.8-8.8c0-2.9,1.5-5.7,4-7.3l-0.4-2.9l-0.3-0.5
		c-4.1,2.1-6.6,6.3-6.6,10.8c0,6.7,5.4,12.1,12.1,12.1c4.6,0,8.7-2.5,10.7-6.6l-1.7-3.4L342,1017.2z"/>
	<polygon class="st0" points="784.2,733.6 784.2,745.8 794.9,739.6 	"/>
	<path class="st0" d="M685.3,871.7c0.3,0.1,0.5,0.1,0.8,0.3l10.3,5.9v-80.7l-11.1-6.4V871.7z"/>
	<path class="st0" d="M665.2,801.7v80.8l18.4-10.5c0.2-0.1,0.5-0.2,0.8-0.3v-80.9L665.2,801.7z"/>
	<path class="st0" d="M479.9,974.2l118.7-68.6v-57.2c0-0.9,0.5-1.7,1.3-2.2c0.2-0.1,0.4-0.2,0.7-0.3v-22.3l-120.7,69.6L479.9,974.2
		L479.9,974.2z"/>
	<path class="st0" d="M832.1,706v80.9c0.3,0,0.6,0.1,0.9,0.3l20.6,11.8v-80.8L832.1,706z"/>
	<polygon class="st0" points="1043.1,546.2 1007.9,566.5 1043.1,586.8 	"/>
	<path class="st0" d="M1062.2,346.1l-118.6-68.5v80.8l103.1,59.5l15.6,9L1062.2,346.1L1062.2,346.1z"/>
	<path class="st0" d="M664.2,801.7l-60.6-34.9v36.5l-17.8,10.2l15.2,9c0.1,0,0.1,0,0.2,0.1c0.1,0,0.1,0.1,0.1,0.1
		c0.2,0.1,0.3,0.4,0.1,0.6c0,0,0,0,0,0.1v22.7c0.3,0,0.6,0.1,0.9,0.3l61.9,36.2L664.2,801.7L664.2,801.7z"/>
	<polygon class="st0" points="1142.7,248.8 1158,257.8 1237.2,211.8 1222.6,202.8 	"/>
	<path class="st0" d="M784.7,732.8l11.3,6.3c0.2,0.1,0.3,0.3,0.2,0.5v0.1v67l34.3-19.6c0.2-0.1,0.4-0.2,0.7-0.3v-81.1L784.7,732.8z"
		/>
	<path class="st0" d="M854.5,718.2V799l247.7-143v-39.8c0-0.9,0.5-1.7,1.2-2.2l0.8-0.5V574L854.5,718.2z"/>
	<path class="st0" d="M11.1,908.7l170.3,99.5v-80.9L10.3,828.5L11.1,908.7z M159.7,936.1c7.9,4.6,12.2,12.9,13.4,22.2l-7.3-4.2
		c-0.6-4.3-2.4-8.2-6.1-10.4c-4.9-2.8-7.5,0.7-7.5,9.3c0,8.8,2.6,15.4,7.5,18.2c3.8,2.2,5.6,0.4,6.1-3.3l7.3,4.2
		c-1.2,7.8-5.5,11.3-13.4,6.7c-9.2-5.3-15.2-17.5-15.2-30.1C144.5,936.2,150.4,930.8,159.7,936.1z"/>
	<path class="st0" d="M479.5,874.8l-1.2-0.7l-118.1-68l-178.3,103l-1.3-0.7L24.8,818.3l-14.2,9.3l171.3,98.9L360,823.6
		c0.1,0,0.1-0.1,0.2-0.1l0,0l0,0l0,0l0,0c0.1,0,0.2,0,0.2,0.1l119,68.9L600,822.9l-15.1-8.9L479.5,874.8z"/>
	<path class="st0" d="M360.7,824.8v81c0.3,0.1,0.5,0.1,0.8,0.3L479,974v-80.8L360.7,824.8z"/>
	<path class="st0" d="M1063.2,556.6v31.6l33.9-19.4c0.1-0.1,0.3-0.1,0.5,0l7.1,3.9c0,0,0,0,0.1,0s0.2,0,0.2,0.1
		c0.1,0.1,0.2,0.2,0.2,0.4V613l76.3-44.3V488L1063.2,556.6z"/>
	<polygon class="st0" points="842,422.6 559.7,585.6 574.8,594.5 857.9,431 	"/>
	<polygon class="st0" points="1186.5,328.5 1186.5,346.3 1237.8,316.8 1222.5,307.8 	"/>
	<polygon class="st0" points="1186.5,361.3 1170.8,370.5 1186.5,379.4 1186.5,427.9 1238.2,398.4 1238.2,317.7 1186.5,347.4 	"/>
	<path class="st0" d="M697.3,797.2v80.7l95.9-55.5v-12.5c0-0.9,0.5-1.7,1.3-2.2l0.8-0.4v-66.8L697.3,797.2z"/>
	<path class="st0" d="M181.4,797.9v-81.1L10.3,618.2v80.6L181.4,797.9z M169.5,733v7.7l-16.1-9.3v9l14.2,8.2v7.7l-14.2-8.2v9.1
		l16.4,9.5v7.7l-23.7-13.7v-41.2L169.5,733z"/>
	<polygon class="st0" points="943.6,383.1 943.6,463.8 1062.2,532 1062.2,451.3 	"/>
	<polygon class="st0" points="182.4,798 359.7,695.6 359.7,614.3 182.4,716.8 	"/>
	<polygon class="st0" points="863.4,404.3 941.7,358.8 942.6,358.3 942.6,277.4 863.4,323.2 	"/>
	<path class="st0" d="M360,613.1c0.1-0.1,0.3-0.1,0.5,0l119,68.9l118.4-68.3l-48.2-28l0.1-0.1L535,577l-2.4,1.3l-54-31.2
		l-180.8-95.3L11.1,617.6L181.9,716L360,613.1z"/>
	<polygon class="st0" points="863.4,428.9 863.4,509.6 942.6,463.9 942.6,383.1 	"/>
	<path class="st0" d="M1063.2,345.9v81l118.3-68.5v-27v-53.9L1063.2,345.9C1063.2,345.8,1063.2,345.9,1063.2,345.9z"/>
	<path class="st0" d="M359.8,718.7L359.8,718.7c0.2-0.3,0.4-0.3,0.7-0.2l119,68.9l118.7-68.6l-15-8.9l-101.9,59.3l-1.4,0.8
		l-119.3-69.1L182,804l0,0l0,0l-0.8-0.5L26,713.8l-15,8.8l171,98.8L359.8,718.7z"/>
	<polygon class="st0" points="598.6,800.4 598.6,719.6 479.9,788.2 479.9,868.8 	"/>
	<path class="st2" d="M1242,103L1242,103L1068,2.4l0,0l-1.2-0.7l-1.2,0.7l0,0L6.5,614c-0.4,0.2-0.7,0.6-0.9,0.9l-0.3,0.2v1v84.3v1.1
		l0.5,0.3c0.2,0.3,0.5,0.6,0.8,0.8l14.4,8.2L6.6,719c-0.4,0.2-0.6,0.5-0.8,0.8l-0.2,0.1v0.3c-0.1,0.3-0.2,0.6-0.2,0.9v84.3
		c0,0.3,0.1,0.6,0.2,0.9v0.6l1,0.6c0,0,0.1,0,0.1,0.1l2.2,1.3l11.2,6.5l-13.5,8.8c-0.7,0.5-1.1,1.3-1.1,2.1L6.3,910
		c0,0.9,0.5,1.7,1.2,2.1l173.3,101.2c0.4,0.2,0.8,0.3,1.3,0.3c0.4,0,0.9-0.1,1.3-0.3l177-102.3l118,68.3c0.8,0.4,1.7,0.4,2.5,0
		L602.5,909c0.8-0.4,1.2-1.3,1.2-2.2v-54.2l59.8,35c0.8,0.5,1.7,0.5,2.5,0l18.9-10.8l10.8,6.2c0.8,0.4,1.7,0.4,2.5,0l98.8-57
		c0.8-0.4,1.2-1.3,1.2-2.2v-12.5l33.5-19.2l21.1,12.1c0.8,0.4,1.7,0.4,2.5,0L1106,659.6c0.8-0.4,1.2-1.3,1.2-2.2v-39.8l78.1-45.3
		c0.8-0.4,1.2-1.3,1.2-2.2V486c0-0.9-0.5-1.7-1.3-2.2l-14.4-8.2l15.7-9.1v-1.4v-31.4l55.4-31.6c0.8-0.4,1.3-1.3,1.3-2.2v-84.3
		c0-0.9-0.5-1.7-1.2-2.2l-14.4-8.5l14.3-8.2h0.1l0,0l1.3-0.7v-1.4V211v-2.1l-15.5-9l15.5-8.9v-1.5v-84.2v-1.4L1242,103z
		 M1238.2,212.4V293l-16.9,9.7c-0.1,0.1-0.2,0.2-0.3,0.3l-34.4,19.8v-48.3l-27.6-16.2L1238.2,212.4L1238.2,212.4z M1043.9,545
		c-0.1-0.1-0.2-0.1-0.3-0.1c-0.1,0-0.2,0-0.3,0.1l-36.6,21.1l-0.1,0.1l0,0l0,0l0,0l0,0c0,0,0,0,0,0.1l0,0l0,0l0,0l0,0
		c0,0.1,0,0.1-0.1,0.2l0,0c0,0.1,0,0.2,0.1,0.2l0,0l0,0l0,0l0,0l0,0c0,0.1,0.1,0.1,0.2,0.1l36.4,21c0.1,0.1,0.2,0.2,0.4,0.2l0,0
		l10.5,6c0.1,0.1,0.3,0.1,0.5,0l7.9-4.5c0.3,0.2,0.7,0,0.7-0.4l0,0l34.1-19.5l6.3,3.5L854,717.4l-21.9-12.5c0-0.1-0.1-0.2-0.2-0.3
		c-0.1-0.1-0.3-0.1-0.5,0l-47.9,27.8l0,0l0,0l0,0c-0.1,0-0.1,0.1-0.1,0.2l0,0l0,0c0,0.1,0,0.1,0,0.2l0,0l0,0l0,0v13.6l-86.4,50h-0.1
		l-11.7-6.8c-0.1,0-0.1-0.1-0.2-0.1l0,0l0,0l0,0l0,0l0,0l0,0l0,0c-0.1,0-0.2,0-0.2,0.1L664.9,801l-61.1-35.2v-49.5l-15.5-9.2l15.5-9
		v-32.6L862.3,516l81-46.6l118.3,68l1.2,0.7l103.1-59.6l15.2,8.7l-118.4,68.6L1043.9,545z M1062.2,556.7v32l-7.9,4.5l-10.2-5.9
		v-41.2L1062.2,556.7z M1043.1,546.2v40.6l-35.2-20.3L1043.1,546.2z M832.9,787.1c-0.3-0.2-0.6-0.2-0.9-0.3V706l21.5,12.2V799
		L832.9,787.1z M784.2,733.6l10.7,6l-10.7,6.2V733.6z M683.6,871.9l-18.4,10.5v-80.8l19.2-11v80.9
		C684.1,871.7,683.8,871.8,683.6,871.9z M696.3,877.8l-10.3-5.9c-0.2-0.1-0.5-0.2-0.8-0.3v-80.9l11.1,6.4V877.8z M600.5,846
		c-0.2,0.1-0.5,0.1-0.7,0.3c-0.8,0.4-1.3,1.3-1.3,2.2v57.2l-118.7,68.6v-80.9l120.7-69.6V846z M358.9,906.1l-176.6,102v-80.9
		l177.4-102.5v81C359.5,905.9,359.2,906,358.9,906.1z M26,813.1l-14.9-8.5l-0.7-0.4v-80.9l170.9,98.8V903L26.6,813.5
		C26.4,813.4,26.2,813.2,26,813.1z M1181.5,432.2v31.5l-16.9,9.8c0,0-0.1,0-0.1,0.1L1063.2,532v-80.8l118.3-68.3V432.2z
		 M1222.5,196.9L1222.5,196.9l-85.8,49.6l-1.1,0.7l-18.1-10.5c-0.1,0-0.2-0.1-0.2-0.1c-0.1,0-0.2,0-0.2,0.1l-2,1.2l-51.8-30
		l175-101.2v81.2L1222.5,196.9z M1062.7,433l1.6-0.9l101.5-58.7l15.2,8.7l-118.4,68.4l-119.3-68.6c0,0-0.1,0-0.2-0.1l0,0l0,0l0,0
		c0,0,0,0-0.1,0l0,0l0,0c-0.1,0-0.1,0-0.2,0.1L863,428l-16-8.4l4.2-2.4l7.2-4.1l0,0l3.7-2.2l1.3-0.7l0,0L943,364l103.7,59.8
		L1062.7,433L1062.7,433L1062.7,433z M182.4,903v-80.8l177.4-102.5v80.8L182.4,903z M360.7,800.6v-80.9L479,788.2v80.5L360.7,800.6z
		 M1062.1,208.3l52.7,30.5c0.1,0.1,0.3,0.1,0.5,0l2-1.2l17.4,10.1l-1.9,1.1l0,0l0,0l48,28.1l-118.3,68.3l-119.3-68.9
		c-0.1-0.1-0.3-0.1-0.5,0l-80,46.3L700.5,219L1066.7,7.5l170.6,98.6L1062,207.5c-0.1,0.1-0.2,0.2-0.2,0.4S1061.9,208.2,1062.1,208.3
		z M603.6,611.3L603.6,611.3l-1.2-0.7L575.8,595l282.6-163.2v80.7L603.6,659.6V611.3z M481,542.7l-178.1-93.9l392.8-227l162.1,103.5
		L481.4,542.9L481,542.7z M858.4,407.2l-9.8,5.7L554.7,582.7L535,571.2l-2.4,1.3l-50.3-29.1L858.4,326V407.2z M583,704l-103.1,60.2
		v-81.4l118.7-68.4v53.9v26.8L583,704L583,704z M478.9,763.7l-118.3-68.5v-80.9l118.3,68.5L478.9,763.7L478.9,763.7z M559.7,585.6
		l282.3-163l16,8.4L574.8,594.5L559.7,585.6z M942.6,358.3l-0.9,0.5l-78.3,45.5v-81.1l79.2-45.8V358.3z M297.8,451.8l180.8,95.3
		l54,31.2l2.4-1.3l14.8,8.6l-0.1,0.1l48.2,28L479.4,682l-119-68.9c-0.1-0.1-0.3-0.1-0.5,0L181.9,716L11.1,617.6L297.8,451.8z
		 M359.7,695.6L182.4,798v-81.2l177.4-102.5L359.7,695.6L359.7,695.6z M1046.7,418l-103.1-59.5v-80.8l118.6,68.5c0,0,0,0,0.1,0V427
		L1046.7,418z M181.4,716.8v81.1L10.3,698.8v-80.6L181.4,716.8z M863.4,509.6v-80.7l79.2-45.8v80.8L863.4,509.6z M943.6,463.8v-80.7
		l118.7,68.2V532L943.6,463.8z M1181.5,331.4v27l-118.3,68.5v-81v-0.1l118.3-68.3V331.4z M26,713.8l155.1,89.7l0.8,0.5l0,0l0,0
		l178.5-103.1L479.8,770l1.4-0.8l101.9-59.3l15,8.9l-118.7,68.6l-119-68.9c-0.2-0.1-0.5-0.1-0.6,0.2l0,0L182,821.4L11,722.6
		L26,713.8z M598.6,719.6v80.8l-118.7,68.4v-80.6L598.6,719.6z M181.4,1008.1L11.1,908.7l-0.8-80.2l171.1,98.8L181.4,1008.1
		L181.4,1008.1z M361.5,906.1c-0.2-0.1-0.5-0.2-0.8-0.3v-81L479,893.3v80.8L361.5,906.1z M479.4,892.5l-119-68.9
		c-0.1,0-0.1-0.1-0.2-0.1l0,0l0,0l0,0l0,0c-0.1,0-0.2,0-0.2,0.1L181.9,926.5L10.6,827.6l14.2-9.3l155.9,90.1l1.3,0.7l178.3-103
		l118.1,68l1.2,0.7L584.9,814l15.1,8.9L479.4,892.5z M1158,257.8l-15.3-8.9l79.9-46l14.6,9L1158,257.8z M601.5,845.9v-22.7
		c0,0,0,0,0-0.1c0.1-0.2,0.1-0.5-0.1-0.6c0-0.1-0.1-0.1-0.1-0.1c-0.1,0-0.1-0.1-0.2-0.1l-15.2-9l17.8-10.2v-36.5l60.6,34.9v80.8
		l-61.9-36.2C602.1,846.1,601.8,846,601.5,845.9z M794.5,807.7c-0.8,0.4-1.3,1.3-1.3,2.2v12.5l-95.9,55.5v-80.7l98-56.7v66.8
		L794.5,807.7z M830.5,787.1l-34.3,19.6v-67v-0.1c0-0.2,0-0.4-0.2-0.5l-11.3-6.3l46.5-27v81.1C830.9,786.9,830.7,787,830.5,787.1z
		 M1103.4,614c-0.8,0.4-1.2,1.3-1.2,2.2V656L854.5,799v-80.8L1104.2,574v39.6L1103.4,614z M1105.2,613v-39.8c0-0.2-0.1-0.3-0.2-0.4
		c-0.1,0-0.2-0.1-0.2-0.1s0,0-0.1,0l-7.1-3.9c-0.1-0.1-0.3-0.1-0.5,0l-33.9,19.4v-31.6l118.3-68.6v80.8L1105.2,613z M1238.2,398.4
		l-51.7,29.5v-48.4l-15.7-9l15.7-9.1v-13.9l51.7-29.7V398.4z M1186.5,346.3v-17.8l36-20.7l15.3,9L1186.5,346.3z"/>
	<polygon class="st2" points="169.8,774.4 169.8,766.7 153.4,757.2 153.4,748.1 167.6,756.3 167.6,748.6 153.4,740.4 153.4,731.4 
		169.5,740.7 169.5,733 146.1,719.5 146.1,760.7 	"/>
	<path class="st2" d="M158.8,831.8l-12.7-7.3v41.2l12.7,7.3c9.7,5.6,15.8,0.9,15.8-11.5S168.5,837.4,158.8,831.8z M158.8,865.3
		l-5.4-3.1v-25.8l5.4,3.1c5.3,3,8.2,9.2,8.2,17.6C167,865.6,164.1,868.3,158.8,865.3z"/>
	<path class="st2" d="M159.7,978.8c7.9,4.6,12.2,1.1,13.4-6.7l-7.3-4.2c-0.5,3.7-2.3,5.5-6.1,3.3c-4.9-2.8-7.5-9.4-7.5-18.2
		c0-8.6,2.6-12.1,7.5-9.3c3.7,2.2,5.5,6.1,6.1,10.4l7.3,4.2c-1.2-9.3-5.5-17.6-13.4-22.2c-9.3-5.3-15.2,0.1-15.2,12.6
		C144.5,961.3,150.5,973.5,159.7,978.8z"/>
	<polygon class="st3" points="403.9,964.8 396.8,944.9 389.8,964.8 368.8,965.4 385.5,978.2 379.5,998.4 396.8,986.4 414.2,998.4 
		408.2,978.2 424.9,965.4 	"/>
	<path class="st2" d="M336.1,982.9c-15.9,0-28.9,12.9-28.9,28.9c0,15.9,12.9,28.9,28.9,28.9c15.9,0,28.9-12.9,28.9-28.9
		C364.9,995.8,352,982.9,336.1,982.9z M333.4,1027.3c-6.7,0-12.1-5.4-12.1-12.1c0-4.5,2.5-8.7,6.6-10.8l0.3,0.5l0.4,2.9
		c-2.5,1.6-4,4.4-4,7.3c0,4.9,4,8.8,8.8,8.8c4.1,0,7.6-2.8,8.6-6.7l0.4,0.1l1.7,3.4C342.1,1024.8,338,1027.3,333.4,1027.3z
		 M349.2,1023.4l-1.5,0.7l-0.7-1.5l-4.8-10.7l-10.5,0.1h-1.6l-0.1-1.6l-0.6-14.3c-0.9-0.6-1.6-1.7-1.6-2.9c0-1.9,1.6-3.5,3.5-3.5
		s3.5,1.6,3.5,3.5c0,1.4-0.9,2.7-2.1,3.2l0.3,6.8h8.4v3.3h-8.2l0.1,2.1l9.9-0.1h1.1l0.5,1l4.6,10.2l3.3-1.5l1.3,3L349.2,1023.4z"/>
</g>
<pattern  id="block2-section2_1_" xlink:href="#block2-section2_2_" patternTransform="matrix(1.4437 0 0 -1.4437 27588.1719 -100092.7109)">
</pattern>
<polygon id="block2-section2" class="st4" points="535,574.1 532.6,575.4 479.8,544.9 297.7,448.9 7.8,616.6 7.8,700.2 182,801.1 
	360.5,698 479.8,767.1 601.1,696.5 601.1,612.7 "/>
</svg>
