<?xml version="1.0" encoding="utf-8"?>
<!-- Generator: Adobe Illustrator 21.0.0, SVG Export Plug-In . SVG Version: 6.00 Build 0)  -->
<svg version="1.1" id="Layer_1" xmlns="http://www.w3.org/2000/svg" xmlns:xlink="http://www.w3.org/1999/xlink" x="0px" y="0px"
	 viewBox="0 0 283.5 283.5" style="enable-background:new 0 0 283.5 283.5;" xml:space="preserve">
<style type="text/css">
	.st0{fill:#000;}
</style>
<path class="st0" d="M141.7,1.2C64.2,1.2,1.3,64.2,1.3,141.8c0,77.5,62.9,140.4,140.5,140.4c77.6,0,140.4-62.9,140.4-140.4
	C282.2,64.2,219.3,1.2,141.7,1.2z M128.9,217.5c-32.5,0-59-26.4-59-59c0-22.1,12.2-42.3,31.9-52.4l1.4,2.7l2,14
	C93.2,130.6,86,143.9,86,158.5c0,23.7,19.2,43,43,43c19.8,0,36.9-13.4,41.7-32.7l2.1,0.5l8.3,16.6
	C171.1,205,151.3,217.5,128.9,217.5z M205.8,198.6l-7.3,3.3l-3.3-7.4l-23.4-52l-50.9,0.7l-7.7,0.1l-0.3-7.8l-2.9-69.4
	c-4.6-3-7.7-8.2-7.7-14.2c0-9.4,7.6-17,17-17c9.4,0,17,7.6,17,17c0,6.9-4.2,13-10.2,15.6l1.4,33.3h40.7v16h-40l0.5,10.3l48.2-0.7
	l5.2-0.1l2.2,4.8l22.3,49.6l16-7.2l6.5,14.6L205.8,198.6z"/>
</svg>
